<mxfile host="Electron" agent="Mozilla/5.0 (Windows NT 10.0; Win64; x64) AppleWebKit/537.36 (KHTML, like Gecko) draw.io/26.2.2 Chrome/134.0.6998.178 Electron/35.1.2 Safari/537.36" version="26.2.2">
  <diagram name="Page-1" id="qcBZOwpDFH3dga7qZUkL">
    <mxGraphModel dx="2068" dy="1202" grid="1" gridSize="10" guides="1" tooltips="1" connect="1" arrows="1" fold="1" page="0" pageScale="1" pageWidth="850" pageHeight="1100" math="0" shadow="0">
      <root>
        <mxCell id="0" />
        <mxCell id="1" parent="0" />
        <mxCell id="H8FFyv-SCZrLx-SPlViR-1" value="&lt;div style=&quot;background-color: rgb(255, 255, 255);&quot;&gt;&lt;div&gt;&lt;span style=&quot;&quot;&gt;snapshotState()&lt;/span&gt;&lt;/div&gt;&lt;/div&gt;" style="rounded=1;whiteSpace=wrap;html=1;fontFamily=Helvetica;fontSize=12;fontColor=default;" vertex="1" parent="1">
          <mxGeometry x="340" y="260" width="230" height="40" as="geometry" />
        </mxCell>
        <mxCell id="H8FFyv-SCZrLx-SPlViR-2" value="&lt;div style=&quot;background-color: rgb(255, 255, 255);&quot;&gt;&lt;div&gt;&lt;span&gt;private &lt;/span&gt;&lt;span&gt;LinkedMap &lt;/span&gt;&lt;span&gt;pendingOffsetsToCommit&lt;/span&gt;;&lt;/div&gt;&lt;/div&gt;" style="text;html=1;align=center;verticalAlign=middle;whiteSpace=wrap;rounded=0;fontFamily=Helvetica;fontSize=14;fontColor=default;fontStyle=1" vertex="1" parent="1">
          <mxGeometry x="660" y="170" width="330" height="40" as="geometry" />
        </mxCell>
        <mxCell id="H8FFyv-SCZrLx-SPlViR-3" value="" style="shape=image;verticalLabelPosition=bottom;labelBackgroundColor=default;verticalAlign=top;aspect=fixed;imageAspect=0;image=data:image/png,iVBORw0KGgoAAAANSUhEUgAABGkAAAFKCAIAAAAhdpXDAAAgAElEQVR4AeydB0wU2R/HJ8bcQCDsAYGABA1qbLERC2Kwayx3nr0bezvL4eF56v0964Gino1m90SwrqILYkNUxDsVGyrNgg1FbLSlLALzz9vZmZ2Zndl9s4CA/Ihxp7z6eW/e/L7zGkHBHxAAAkAACAABIAAEgAAQAAJAAAiYIkCYcgD3gQAQAAJAAAgAASAABIAAEAACQIAC7QSVAAgAASAABIAAEAACQAAIAAEgYJoAaCfTjMAFEAACQAAIAAEgAASAABAAAkAAtBPUASAABIAAEAACQAAIAAEgAASAgGkCoJ1MMwIXQAAIAAEgAASAABAAAkAACAAB0E5QB4AAEAACQAAIAAEgAASAABAAAqYJgHYyzQhcAAEgAASAABAAAkAACAABIAAEQDtBHQACQAAIAAEgAASAABAAAkAACJgmANrJNCNwAQSAABAAAkAACAABIAAEgAAQAO0EdQAIAAEgAASAABAAAkAACAABIGCaAGgn04zABRAAAkAACAABIAAEgAAQAAJAALQT1AEgAASAABAAAkAACAABIAAEgIBpAqCdTDMCF0AACAABIAAEgAAQqKkEygsLi2tq2iBdQACfgEFN1hQWluF5x3eJF54RV6CdjMCBW0AACAABIAAEgAAQqKkENJk3w1ZP6d3C1ftiTU0ipAsIYBCQqsm317Rr4jX+j73XMgpNhILv0kRApm+DdjLNCFwAASAABIAAEAACQKBGEchPPjS3s72F9s9hYUyNShskpvYQ0DzaO6F9AwfXLrOUzzG7eCo5c8Zq8t21LUnSwsKCVLSfvudejpGY8V0aCQTvlizt9H7vDwRBEGOO5PIDvzDnO4IgOm1O41+u5LOM4N4o9glKtYmA45c4IYcEUX/EkWzWbXHUTFviu+9QSmdEsler86C2pLM6GTFxl31OPOo784dOTRxtLK3sG7XvN2XFgYSsL8xt+KUo6sHa1gRB2C26CjTqHoHCB8rNmzdvVj4w8WEuL+WU/8+DOzdxQM+Rm/uAmX8dfZhdLs2r+EXM5pn9OzZ1sKTbVPT/mCNiTTC+S+nYzLuDm3fzQgdfhgTe7/8JmTLjjwksgYvzrEmS7LL1saGXSrySEdIPxT75hFg15MZzfZkrbXJZjT7GtQTmOJLW1iils6O4zmvdsTpx20BnhELRdvzGU7ffmnj2cfL3JTv2VsRPB7e7Ba37PpD+5zcpWSPiFd+liOcKXSrMehBwKz4gNVM8v2VJswLYxIse+ClO3tPXB8y05N0YhII9flIMBhtGfOxGhTD2gwfy2fs19SDFvyOqSBYWFoN2Z3z9RJqqyZqsh+cC53jYkyRJ2vdedytPMon4LiWDwLzxzWqnpm3b2hBW004zzWtJ7AJHwql3b/capp1qQToxq1LVOSt9dXxqCyR6+X/13EYeSDPakFVdkmpiyKCdamKpfKU0fQ4bgp6OIWGfjUT4+dLvnaz5DxFBEJZt5p/LEveVHftrcwP3otoJ36V4TBW5ipX3ikQAfgUEapN2aunubk/azlSxlsBlbxfStV+/TrVdO+VdXtgS2bsuQ7YnStuSgpIzflp49VKggekvqp3wXRqP0Zy72Y/CFQHS+ge0kxlQNQ92jW3nbO/aefrR9FIz/FfIC25NLnwcOqkJkk+Nfz7zyWiM+C6NBmP05jernRxnzB1vSTgsuFiizX9p/BJXQjFnzdJmNUw71YJ0Gq1AX+Hmyz2D0EdvssXYLeeSMnIK8jJTY0Mmt7VCPYuem1Krp4f5K+RbbhSgneQS+4bcY+iHghhvV4Ig6jUdteV8ytvcwvysx1d3Tm5DEgThOO202ECIQuWE+gRBtFoQ+VJtvI8X32UVMMfIexXEWpeDrE3ayWX2gkkKsoF3jM4SuL6sMekw768/WtVu7VR237cDGsXUxidO7NE1q3aWPJiG+pqCfJ5kq42/VvFdmpUQ455MaCeB56zYTgF+ipDoeMF1uad4/U68UDWJk1AfVG3od+Kl++ueyKrJhXfWelqSJNly6Q0Tn83xXZqZ3W9WO9WbGRo6vD7R6Pf/tI1AwsoWhNWk09G/2VevdirL+ZzDtEraMXs1NJ1mVqeq8Ja2oROy+DzWJdIvPzqO0rSAHsjqc1t+08iIo6pIT40Ns1Zop7zPn41b4TUWb81OmGn9oImaZUMQRGPvS8wXeJSj4oSVaKRn/dHHBcOv0M0nmzzQvbnnTD5i+C6rAKPpvFdBpHU6yNqknSznHAwbZUU2XXpD++K9vboNaTtVdfZ35+rVTlxLgJLfKhZfWdiIJEnHScr3lVcTP1/rGeCnCFSZXnIC32XlpY4NqVq1kzKCa4awaRI9AO0kioV/UW5Nzrs4zw3V/NlRpjpb8V3yU4R5VpXaqfjtvwdXTh7g2dbN3srK1rV199E+AZdeiiyjWfLmWojPaK+WzgqyHlHPyrlF5/5T1px4lM2IDDov+vlOOQ8PLx3RpbmTjY1j825j/whP5I9dpecRjT36bM8ggmjpm0hRVJJfe4IccyT3/DyR+U5Y6dTHnp8asXp891YNFNb2TTxHLQm9z49dCnxZTkrk3zM8XWaeYgjITSelfhK9ZcFQz2ZONla2Li26DPXeeuZpgUh8eDyRR3yXFBYlbWIKnpz2m9qrlbONtX2TjoN/3X3rY/ml+WiokOGMOIwcaU5NRKOG2m9IFuT0VWBPdGPwfna8Ea2yvpt/QeDyxhL0vb3xygTBdYzYqaoIU5CMyjqVpZ1ykyP85wzujOaPWaN5L9PXHE78xH/gKH2dN/HE0TnAKvc4n2buE/46nvih0hVU8cvYkN/G9GztYmdpqXBu7jlswaaox1yZQFGySvPCfO0szg1pJRmxW2b3bedmZ61wadt3pn/0c+YJ1pUcvkvkAafWYZKnS9xwUJ3+Svftz5jqpZM301X873Xll3+xIwii2Zq7jEP9r1Tl17tgjrBcymhtTFOSlXeUTDmxM9n62r8FwVNVRIfICee+5KS9XOp9uXnPKJseF7r5PAhP5ZeaLmFfnlxNWzD/crOeUVZeZ1uMve594M3TIk6i01M7uqu++1+G7mErz/rFS0W4q6ZcZIblpKW0cVc13faR4wfnUKZ2Kn77X/jqaT90c2/mbGvr2Lh9r3G/BcW+EjxFKN6SN/E7fxvXo21DBxtL0tK2YRvPQdP/OpkktATY+U45j47+Mdqrtau9vUvrnhOWH37Afxdr5zuRE46n7xtMkm3XIUsgeX1H0mb8sdwLv4jMd8JKp362VX7aqbWTerVr5GDn3KLb2GVhAjtECqShJUDJbxUTVjZDUz9mRXOLWyTG4izVjdMjw7Y3DvF33rGtq/LkuqS3n6U+hXyK6460U6TpJSewXJa+fXVzqWpPh10bHAL8bIM3u4eFzop/mFwkFr3mw/mEyDGHAhqH+LvuDuwVERX49CPPtkHdR6KTl9iLe4P5pa+jgdHvVJz/8nC8csihkFY7/J1CtnQ6cnTp7aevBG8oXb+TUvVF8zjt0rQjQc1C/Bvt2z3x6r0HUmWAqZ1M5l2kXI1fwnuOqPTAXvQcJ/Z/sr3vQ7GgL3rbsW4EB6Sdd6zQi/rp2W3eI7q1crW3dXRr4zXCZ3v0M15pcjzg1mTWS+mVRY0sLCwa+MQK7BXWBXOA5VJ9J2BEG0dr++aD/eJFKxATmvC3yrRTfoJvD/ROFv45DAh+xG8035yc6CZ0hc7rt5gbzZrFFMVactsPjHHmu7f29EvgGEm0Jhkamv0iuDtBeG5Oo55u60LUGxb6vkQ1HfnkrhWBm07GmgkIn9hQELuHLzd2IWGKYtpK1NVI2i04x7wFZaWTyo5b0VXBjxmtDOC5/JqgwHF5UhS+S1xKFPXlya4fHfnJtOkVsH2eiHbCy1F2+FAUnOFEji8RU9CNHgHpDHIpA05UO+HFLsvaxi8jJsWV+ouvnT5e9OmAhjzy/8iWM1VvuO81ps6bfOIo/HK/vtgVjdEnHStXQeXf9O+NupQFf9Ydl8Rwv8vKqSE6RbQmdFVHwVw713FHeZzwXeLWEEzysvTD/VUtCIJwWiIcu0IHYv9bnGFllMJllkv81gaLkqy8y2nrDDP39a4w2ik0fUwvJKL0/7pc9nsgMOY0cdsuK9z5zjpE2o17eI39IKvJmNxRRUx6/JLOwrtnvd0jv+ukct+pe2eUxCZ8564afpp5JeHmVI52yk9Y19tJYG+hFqDBDyFJAksgYkoz3YR1rnvSqs2CszxLQKedAkPHN+S5J+26rb/NsQRo7TTiYPbLkF4k2W3rY+pZgBdpOTLsfUnkLJQG7loRuOlktFPQ4SlNBLF3XWeeJUDJbhXf/TMEpX9YqNFpHwVPlh70N5i/tL7DueS3oiWNpYi0PjFcvk1VthJRO352/6jOc8oIBVeUvvbQBoN0buwVl64fjlhl2in/7eX+IawAYw/83JQ3krlPnE47RexJOdacly+/Boeu3BXtjMLRTjh5Fy0s6YtvMJ+jKtJO2ddWdXfQrtHCfYqduq0QlSZ4NZmX2cKIaajy99j+nHdZ5ATD5afQ4ZZ0OkmyV4iuoRQJyvBSVWmnR/4d0RSVttN3X055l1esKcp+m3Rh4/BG6OKAXZyFPMpv/K8JEkqtpx249SpXU0aVl+Rn3Amd0w7ZK02W3mQ+kLHaqYtHH0/v8IQXn9X5Wakx24Y3qYe89wx8wWaO1iQDd2fRhm+/HTdC+hJE/71vqfxj45BxxdFO2OnUWTMenft2X3z09qvsAvXH5zcOeXsiOVOv6+anbOzcA55qcugwbvXRO1n6h0xOOvMvLnDRzvkZt+1Cypvcgvx3aVd2TtHO+Wk09xz7rqQofJ74LilsStSHI2O085Cajt56ITUzryAnI1G1pl+XVq3QjCVevxNujiQH5Oi0E+fLupSpJ6KdcGOXo52ww+RWkUo8xtVOuWdmo4Uov2sxbtuF5Df0vJfd09ujclOMOsSRGro6b/qJo2SUe3HGvweWDWtlW5kKqih+SVP0YDv1WXok4fkHdWHO20dnNwzXXmswI1r/ApZRQyhaEbXp2rPr5F1xT7LUhblvk6LX/4S6MAkXnyscsw/bJXYNwSRfpilU6/4y9v2IEvbjvgzmiva3qIQVw/dWomUfpLQTuzyj7rFCgUn96dbZw3dJyWmXKDxKsvIuo63DfiDjfJx4pjPXULCwsJjOji/ADpGidNqpy5g4T78XCRkatboo9Xra8IFIINWf/Fj/jqOo/Pi7Lu4qotPFcaGZKVmaAnVR2s1nU4ZGER0iG616y7wRcnyHqoju969p01B+476t+xWvCar6v7+mP5Wnh14l3M/9776MJGqdytBOSRs9LCwsbNxn7b2SqrMEki/+PaopuvjDHq4lcPPPFhYWFlbtZ4YmvGYsgbth8zqgDqIWf9ziWAK0dvLq2r+bz+GEl8gSSIsJGNUC2UBWfYL19g+tnX7cm0U93tSFJAfuurlzAEkO2v+WyldOFGgn7HTqtFNXzwG9lhy/8xpZAi9uHvm1m4OFhYVl961sPy+PqXFLgKLktoopm7qg5fXmn+PFwj8pOnfub0WAn/0/x4LSs94Wl+SrP8TfP+kZvO77wA0Tkxj5grGygm6dPXyXKB2vVu1DOqRT9J2E3CJNOVVeVvwm8+4voesVAX5trrzSlyZVfOniFkWAn4MunZp89ftr95QeKJ1bvZ8x7Wx5aaFGo9b+e5N4EK0VcSLhDXNFe71Eb1pxQZjod3q3+eC67wPXe5xNiPuQl/+ltKgoNyX92rg96OKQ+/pXB4W0k58iYE9v5d4/kjNeF2nUBZ9vJUX10uquvgliIta0dsLLOzc7Jo/LsZ8jflBxi51IUqrfie9Ue6ZJ2dIXLY7fYHgo5ymm8mO80ZA6mzYTAy6mai3Vx1d3T3e3tbCwaLrgPNMu6cPDqcl61/QR/Vy3WHFHeMPg3LTLDweGstqpZwi3hTUITHChirRTyeOYAwcOHIh6xGeVtX8geh8PDdd3lejWPR91SH8JJTH3etCiRYsWbed0qujsCcu+Ic9Ze4Ci8i4u0FozA/VDt2hN0ickg6LurW1D1O/q5VmP6Bn4iqI+h41A8eu1E346dbFbDeI291Tpk61dUYjdgwXQeW2lk8dkvxOJH7kfMVAeZaQz7+hYpCXbrUzgfiH8krTJoz5BkEPDP7DFis8T3yU+JfXRsWhyeVOfK9we2vfKCdo+Aa52ws5RlWgn7NhlaCf8MNnCqtwDTO2Ue3g0KqO2f95iXksoGV+SN3qgrxB9OB82JJ64C/OFTxyFX+66LGve3jy4fGQbu0pRUJozs9EnjAZTT/FeYOq4heizDDnpBNsKyddORKsVvGfuQ9gI1IXa9M9b+sKjtZNpl/g1BJ88kwrJx4RxQFWvdsJvbfApMVkznXf82JkwTf9WoXaynP6E946Lv+vqriLc4/frx9aVHPVBvVLttn/ivRGepHp0VBGdrofrllv8cmyRinC/flD7dn11OI7ocmf5hnPEsOQkbQZj/aIJ9/hQY2szioLA104lT2JCQ0NDzySxz6A2wKwDP6JRGCMO61/7ujDHcvYVQU5z/w1ZvHjx4kDOR2udelEM2PGCawnEeDdGYf54gO2joi2n/jsyKOq+b3vSqnuPbpZkn+DXFPX50Gi+dsJPpy5228H7uCZj6dPt3VHsBp+ucSwBhjF+q3hnTRsLC4vGy64zXg1/ixMnoYUfQta84RoeZak3d9kG+CmO3XpDe8FXRPgu0cjkhOGoc+bIMf54tryM/5bFRi9LSNeXuyZxsjadf73lpTPl5i67AD+HiPv6Os/ksTLnO5V9iH1wJ+xBqmAZ9qzEUCTPIjgTMnT9Tv7DuIKKKnuasAe5PHLjFZM8/a9J7SQ/7/rApY7wnyN+CPK0U/6/yztZoY8as3mDw6i84xOsLSwsOqy+zWuXkjd3tSJJmxGH9ZaqLnaMmsxPJ0VRD/3bkyTp7EN/EjK4zbmA4TL31t9DWjlY2zUduOoyz37gBCN6aI52kvgcybWMReOiKMpw3kuRcgIy2YYc4HzvFvetsyc4/Qxad5rTk5ApSM9r0l6hNUmvoNcUVXZzOT0esMvfqRRFfQwdxtdO4jGJpVMXe2+hSKL7NBwW64tR/TgKzWtCI/QsXbxmblQlZ3M+snBilJHOW8tQj53bCuGMnVT/DgRB2PpcYYPF54nvkg1ccGBYminr0Rrw382K4j44FJV9SMudW0OwcyRpGFWk3wk7dhnaCT9MAcbKOsXUTnQ6HTk1lk4APaaLnH+BtUewnzgKv9x5mdW8u31o5Zj29noF9cjYXkM8v5wTeiZPvcknuYId6cGEkNkzZsxYFaUzE8yZ7+Twq/7J1kaZttkTtSFTIvRvelo7mXaJX0PwyTMYJB8TxgGudmLdG5kexnVDH0uJUtYlfmuDT4kJ3HTe8WNnwqyeX12/U/dQ/oYwmoxJHVWE+0Vf9BKj/z4u66ci3M+veMBc0P3m+o9UEe5RPjd157cDLhLuF9ZqJ4vG+J4hxqVePnKN6HAzAtm0xft+VhG9E/8VhGH6VGefCbramKEvOPs7xXrbCXaCKjoxGX0AHh5q2hKg+516BbKjtbUp1qimImuOntekvUJrp77oK2rZrRXNtOOIvLagbSg/ho3kayepPBumU6ed+gnH99xchqRbA86YWGxLgB85Tqt4e3VrU9rpzfmWAX6KnWeFY3TfxbgH+CmCxCY1YYzE0yXVpMsvD6Yh7RQexvRv8fPIOaPTuTfmNucaOvx41Uu7Pp6g/aUoqjK1kyBS9vR5pHOAnyIs/gl7Raed9u/k9EWhmxnnmgf4KXYYcKYoyqR2kp93NjmSB/jPET8IOdop68zc5iRJWnusFQ5STfhfU5Ikm60ysFQ3dEYLPPxmsPkkRk3mp5PVTk4+IsPMBW5p7YTjUuAR47TqtFNpZvyOhUM7N3GwRNqI98eb9/9q90C0Xppzz1827j0WdfnWo/SsfNHOV509Mf644Gk0GJFFa5IeAajv/kv8kmZ2dnYemx4hGO8PaDdB0fc7URSFmU5d7AY789JGA7lAvzQN+h5J2rf60TvgbFoOa4eKlIWMdMbMRWPeeu14LQgm5+BwRJbLBJsnhe8Sm5LUnApDlYWdI0nDqCLaCTt2GdoJP0xBIVbWKaZ2otPJ1bF0AjJ39kd1adwx1m7DfuIo/HIXyWzJ+3vHfKd6ulqZO9JJKnbDuKRMfIM2hKJ0Y/Y6+uvtVW14mcwG4fpmiNZOpl3i1xB88kweJR8TxkE1ayf81gafEpM103nHj50Js3p+ddpp/FnBG/Djkj5IKa3UK6V3czurCPerOzIFCdUc/AUN8GNDyI78j3BXTY0ppQcEWi5/o7l+18Y9Zj1SEJ+WD1QRs9PZfhpBWNKnsrRTaWb8Lp8Rni0aKCz5syBIsuOmFH0kr/f+aEOSZMM+C//erzxzJSHpuZQlQGunSUr9I6gNhVYvzVezVjitnXoHoS6BL/HLWjk5OXXdrO1xex863EA7YaZTp50MdubVDgskbbz1Cy1gWwJ6Bvoj460ihsWZrnIUWP904Pm3fkKq5piS/30T3TSpiNjkmXaZvV+Jhuc1ORq1NTHx7IvXydnqfNG5/XQ6j97k9uKheIrvjUPpPH7CIJ2VrJ3K867fOzMmDG0HzJ9z5acIjdO3/jrtZLA3Lo0iKPISC4c9MKmd5OedDVv6APs54geBrZ1KXxwc0QAJoZ92PdZ/QNQFFrNAQZJkX87oFfpGTvgo9IXU4JmlMGoyP521WjuNOSJYzvbCHO2KVJtRc0z/lb85Mc3NQDMxAoqnnaiipF0jGvPdWjb0GO4ddC2L118jpV4M7B5ak3TfLhhGJ6ad8NMpFbuhNYZaTCuXTuOWH7iewe+wZujofmWkkybM8DP45ZUILk8Kmzw+JalxQYbaCTtHkoZRRbQTduwytBN+mIJ6UFmnmNqJTqekduLUJak6b/DESdrlhuUumll1euzepcPaKEjSrFkiUrXOMC7Dp5V2Y5gjRjt12qBv1bRuS/PevXjx4kVWvv6zCK2dTLvEryH45Jk8Sj4mjAPJMjJSbaRwsWGyBxgucdslfEpM7Kbzjt/WMWFWzy+zVsQ5gU1iqJ0y53RCGknq3xi25//+A1d3ldeBPKo8a4GXqsu+XOr1Yy931aTzX6ii12PdVc7+8qUTpdNO448JLIGL89DkJG6/U/mbkzObWYpPDBNoJ6ooec/o5lx9RZKKJl1H+YTECywB3VoRJ/C0U69A/QwoplgNtBN+Oo1rJ2tv/ldULEuASRX/11iriGFxpp+2N6adjiq5Q7bpmE0rIiaFGC6L3t8av5erRvwUQVt7nora8UrNs+tQOtkVGgwPRNJZqdop91T0NlvxBMjRTqKLE5rWTrLzzhSAsV/c54gfBqZ2Kk7a1Butudd85mmxhgO1AKLd0fRFgxYDtJNAOxVe/Fm71lrz8Tv/fZnD+W5A21J87YT6fvKe31Dt3+a7ZP7kYX06N3dEnSwEUb/5r9ytSLDtCXxNIiOdUrEbGg1Z8dtmdXVBww9IRYvBi/dee13Ir6TMGX46KZn2BBZPbTJwXMqgJGXFGtrQ2DmSNIxAOzEVSfdrxAjmuqTJ1wztVJ735Hzg/N5uaKwN6dhxwl8XX4t+m+Sm3/BYqtYZujR8Wmk3MrSTYaC6HioD7WTgErvOs2uKCr+si6WTjkbyMWFTIUXJSLWRwsWGyR7gucRpbeS2dRSaxqodTmC4FCebPO0BVux8L1/7rAq006f0Qe4qO7931NunPd0jZ8aWUaVvZ3mo2oVkU89S3d1VA49JvJ6M5R1bOxXGzHdBtlTrSbv/e8W1BOixcLx+JxRhad6Lm5EHAtYt8542sr9naxcFeo2SVq0XxXJ0kpR6keh3wtFOMtIpFTvd78TVTtiWgAA1Rqt4d21bCwuLRpwBgoIwKKq6tRMqTc3nW49vB10/9+uZQz+EBTYOWvd9oJ8iMHDJc45NWK3aqTD9dGMknAKn3nv5qpij6egxe/j9TjVJO+E+R/wqg6Wd8uKXdrAiSevOy2+ww1N4wcjWThg1mRcBOklc15YkSZffhMNRDRzKcGno19QVc8bscb5M08EbWGNx2i1oFZNVQr4S2kmQyvKCF2cXta9HEPX772WnKuDbE/iaREY6jWsn7pg9lJmynNTIvxkFZdNskM/OKy8FkzGYtSKw+sfocSy9dwr7tQXgJE7FeYo5FnUpg1LyuvaY852wcyRjjfLHGzuj2OedF2Ttv9/RGoVNVrFjOSjs2KmqCFOQvMo6NWIEc6Og8y6pnQzH7BmMUzW04PHLnUlJWXZK1JbZ3RpqF+5HqklpuJgK49bUL/6YPfzSlOx3EkmMRL+TgUv8WifV2hiSZyIxrR+kKNHVpurXKGdSqv8VbW1kPJtMSKbzzrjk/orHznVh/LgK14qYYLrfiR6zF7fznfFEosEWPj1VxM/pWf/eU7hf2oSWgcv/e6yq3m+v8uPuWLqfYWdGmQyI4wBbO13TbkHrMC1SaAlIaCdOHOiwvODlucUdLUnSatB+jiVQ+f1OMtJpXDtxx+yhHGBZAmyusVvFJ9u6o0UFZ0VyzH02FPqgmsfsCVKDTstLsi/EhtgG+NkpE/SLpNPpPHYL37apxH6n+NiNigA/lzPJwvopVztVZMyenLyLYMW4JP4c8T1iaKesyNloNpPDwB1pHPHLC4Yes9dvN3ZpYtRkXgTo5MoiRzSxcS3asM34H75L4+GI3a0S7VR4YhLqN+ognCrArBlg0O8kkrKXAT3Q9kWcVRCw7Qls7SQnnbrYDdaKoO1y7loR+szw2k3rJv0XhlxK53w+w04nRdHzp9v506sj6WPAPzLkKeVX6FIOpbzDo9Hoy6aLrnI/Zn44MclgnT3sHJnaG3dEGLtK1Bu0Fj1BDA3lL+ZSFKFdjoSrFrBjp6oiTCnyFbyOqZ3ovMtYKwJDO6oMlC0AACAASURBVOGXO0WVfn4QsWFalwbaL8oVVE00Md1aEZNOCD5PlNwMmj5lypQ/VWxDjl+aVaGd8GsddlvHVhnT+kFib1zq6+2NyyaWcyBsbcxp60znnRMh79Awdt5toyfVq53otSJi/PVz2aUSWxgyXUUMfHgiPI7olBCJbJ4y1R+RxJCkqMNxhDuO+jIMGVc7FZ6cih7zzhv000bowLKPjERdzQb9ToZRUa+CepMk6cSZZS6lXszvd5KTTl3sBmtF3FiK1mbmrhWhz4wJSwB1FMhrFXOOjUdg6alc+ni4R9W7VgQ3JdzjnH/7C1aAoNMZGseZ+cb1IHJcedqp5FQU6grz+k84/Cwn6RBaPU+k30lkrYhmFVwrQk7eRXBgXjJ8jvgeTWmn0ucHhjqTJNl42kne7ob8UOi1Ijps1C5Ow78lfoZRk4UePxwcgSr/D3tMfjjCdymMA+O8SrQTdXURspWtxij1K1Gizw6vQ4drt8vlaqfbK1taW1u7LIoVjPB+5NsOrS887zw7rQDbnsDXJDLSqYvdirclBVX6eIt21S2DNco56HntppXb71eYecD46aTodXvr9dr+hPedSZN0dO3KlSu3xOi/yeHzxHYpgxKVdXA4GnBZv/m4gJjUd/mFuW8fRPkO6NiypY1gfyf8HNHDgep19kvkfusoTQvogdYYabpav8h/2dVFDdCygyPCuE3hp9PT0ABSxezzev/4sVdFmJzKQeUfGYvGtJBdNj3mXjbnGFM70XmXWqO87259XcJ+4ij8cn+4xQttlEmP0KtAXxMXELNG+ZQI3hqj6ivejek1ytmPivilWRXaCb/WySCvA1F4cjz6btB/r3DxABaUJmomeggbe3MHQlPFCStbowd29HHB1BXkD28kHpZL7NZGRlvHZM103vFjZ8Ksnl/8MXvaNcrdVb1C83hvhJKco8GPVm5Pi+G0gDF/RREdbv2yJpoYmUJrmKTdl4gOtxatO0d43Y1lX7Aysoyrnai4xcjcsh1/gm8JZISNQpvJ8LTTndVt7ezs3BZfFlgCSes6oP1ifuGs/1n5/U4y0qnTTrY/8dcof7Ktm+ga5RyqkpYAJb9VTN2M1i2zHBrG/07IiY1Z/1p8jfLjnJ4f1hPGLCadW5MuM2M6BPs7746+KhiD/f5yF7TKn0q/ogZKp58iYH/wZ55TzfvE9fExfyU80fdQMeksTD2OhI0ywaTtjHwY3d+J7ndyUj3g1U8q+9Ap1B8lpp38hwvXKN9Nr1FuOKmOKns0Ew0I3BvMD53JB1qIT27eKark8ZFZXm5Orh0n7U4Um0+P/xzp04GOjGunogf+PW1J0qrjsnj+bgP8QLRrlJOkZd/Ap7x2SZN83Hf16tXbOJYq49F0TWZc6n7VJ6ei3aJaGazlJ3BHUZguUzd0RjaY5Xj9MlkGQYlcqBrtpL4wB+2+STT6af3ZpMy8ooJPrx+eC5jm3qlrVweCILjaKU85Ae2XYuXpc/L+mzy0h1pJflbSmVX9kcqqP3C//snBtifwNYmMdNKx1/PyGtBj8bE7r7ILCz49v3lYtzeul8SOeBzgbLupnw2Pn06K2S/Syn3mzti0d3ma4rzM5JigqW2RfHD95bL+GcLnie1SBiWKKkkN7K/tZELlT/+Rnf03zRVqJ/wcUS/3DEJ6jGwxdut57V6u71Ivh0zW7gtMdtvG/fBacmd1KxSnY5/lJxMzcgpy3yDlhgbsEc1+j+fOjdXtv2maJ1UVYXLqxf3VrdFz67wwhvfm4LjAPtRpJ+8LvN1RmZNCDRNB/vl5SGJ+12Lc9gspb3ML1VlP4vbQe+PajjnCeRdjP3EUfrnH+ThXSl8Tj0ph/O9oJyfd3rgfC4py3z46t3G49pozd29cGaWJPYtJhsrCrnVyyOtI0KVv2XPN1dfZTJmr1cUcQ1Qd8wt6FOo1Hb3lfEqmttyv7prcBjUhDlNPCVbe1YZaidoJu7WR0daxdcBk3mXEzgZaHQf42onZG9fj0swjWWkfSjSaksyn74KWxZDuKqLP3cucxk67Ae4l9xGq75Zm0J+PCi/cqud+qdMoFTH5sci2NKZzjq2d1BfnuaL2rekw/3PJWksg49H5oJmdunTvjpbq4vY75Z2YjOag23b7LSKRtQSSo9cMQirL6scDHEug8rWTjHQi7USSlj16/NB7ifLua2QJvLh1VLc3bo/t/HXTRVCKWAKU/FaxPNVfK548/R/yjFROhMUxFzbTe+MGp2dlFpeoOXvjTkrmDIBh/ZhURPguNQ+moc1t/XtdepSYX6yh0N64We9TfZVIk9gpb3M+8ej2h3UKjdj74n2W5kuxJi/1+X+ztbvoNo95prdt2NhpORS0b93L7Bz99rhfOG0d69SEdlLr5jttHfVfakp+cVFJQUZWWkh0SPdDe9zEtVOIx+F9f6RkvC4qKSj8nMDsjdtHdG9cKmtrGFr9wjMmNZ19/XKSRjH7AsvIu+bMz+gxQd8frUYdFRFl+M8RLyVGtZM6fll7S5J06L89Vf8Bmu+dOdPtjWvbac7uy49pSzXlUsgMd7SEZuOFVwxLE6MmM2Gj3/LnO/uhsFqtShAvb9YxrktN1HTt+hae2n2MWO8mD6pGO1HlGcrJjfhr5xGE84iDBxchTcXVTpQmKbC3LW1kC/638vzrFmcUDrY9IUOT4KdTF/uskPARWlmoT6u1h69wkXtJ7GU5qakZTFsnI51oU4O4P7uiHUAFf9Ydl1zimLsUPk98l/iUtBlXpyrXTO7Z0snayq5R+4HzAuIyyy7+jCw07qg5GTmiSl8dn9oCLUfC/6vfaGToU6YTT4dcneDfS9u3yXNq223NDeHXElyeaJu/yg+TqSH5yrHadXsxdjVhvEj+0hYkL+Ock9br9AscZ19e5oHELP/PsvWcqLfcr9DYTxydJKxyz0pLMdgkWjJH+Dfyb67vLZDsKHNW7Rdd4HyBR+FhlybuLCYZ2gn7KZZJXsspI2ykYc2fEsExoqlPFxe5W/ELHX2UaPXzmXfccmexV6J2wm9t5LQMTEpN5h37LcOEWD2/MrQTRWnitl1WuBusttfl0pL/uIVOfUHzmlT1Oqg67GIEcmpyK+0Vm9WZzBcVWRnG1k5UecaJaU356+yRZMPR4eGLXQXaidIkB/dzREJL8EeStt38EriWQOVrJxnp1PU7/bzj8GitLGRTS9p1XWeeJUCZ0yq+CR/lgCaf9A9IMjRI6dIserYi3J+/7jbSM53Op3KkC6fgK1E7UaUpt/e7iqxf56cI3u3/hm+BF6WvObTBIJ1+zgfPXeEUOyehOUdObzRwr1SJGtNG+50oKufkma38dfb8FLsOH34Y3VhcOx3ffv+QdnkJdklAP+fwy7ydYDkJff9E2VIIwU9x4Ip2yxytO7l516hmogVUkHayHBZuuHEwhf8cmRh1TJLswidoHRS2ngsOSJKzKwDKUva1ld0d+LsRoNTaeSyL5VmqLCaMmsy4LXl+YFRD9IVl4C6Rfj7GFfrFd0l3fJEOv15iLHNuONLHVaSdUNozrgQuGNyxkZ2VtWPj9v2mrT+dqqbiDbUTMmeeRG2YO8SjqaM1MpDrW9m7dRg4w1f5iG/uYtsT8jQJZjp1sU+JKM59dGz5GK/mzjZWdo27jFwSeo+dbyONWfSOvHRqOZ3ZsmBol6aONla2Li07953wv31xr0QaFzyeKE3YLjEpieaTosrPzUL7F3ts5XYS0fHj5Ygq+3TviO+MQR0bO1jpRJTt6KNZou/9gmfntiwY4tHEwZq0cmjS+af5f0c9E/vIhnKPGTtVFWFqWd33bY1GenD2c5RAiHEZXzuh+eKpkZvm/uTRxNGatLJzcx8w46+jD4T70mI/cVKJkyx3KQ8VuV78IjbktzE9WrnYWpLWTs08hszboErlNyG64PFKs0q0E+ZTbB75vKQjy0Z0belEL1Oq1Uh87URRVO6jE+tn/9DJzR6Ve8P2/aevOZT4WVQ4Ve6YPYQeu7XBpMStLabzLid2bshf81iWdkKbFj25krZg/uWmPaKsvM62HB03YUt63FsDCzI9tZO7inBXTbnIGAcFr8ZoRZdwE17cvOJrJ60lcDXYe6hHUydbO5fmHQfO9FelqqnrhtoJlfrTM5sWDO/a0sUOrXVuZevcrPOPs9edSOI/xjr1YrDDkvnznbT5LsnASqcu9umninOTlCvG92jd0N7WqbnXmGUH75trCeBi57srS98zWDv+ufm4XXelnmHN+zM3VaPCtzcOXu8Usq2rMsI/OVOks4IOuTK1E9oa9unTOO+Tu9ru9EerpQf6N9q7Y+jZyyff85S9Lk+aD+cSIseEb28c4u+6O6jH8eOrEtNfCz6McrOvyVJePdz7n78d9crEPO2ElvO4djty5MGtDYP9G+8NGRx9JeqjhnotqZ1OaoqSUy5OOhzYJMS/4d7dE67cTeRO7uYmEh1/SX96edbRQM7mUXzthDjJyrsmJXSaZyNHF/dxwXfE7Rrc56iKtJP2OY7e5j3Cq6WLva2jW1vPAZP//OfaaxFLVQcLqyYjm+XQnPZoSV67PkGpRuqGHJcUpYmajRob8ifTm3Lzy1aWduJ7rVtnOmtmolK6BtQtIHJy+2x7V2TJDQ2vlJfLh1MTnVGfwoAd6VJGn5zEVafbfOVE9EnGdvZZ/oe46kxTJcZdueVeiQmDoIAAEAAC5hDQaacpwpVpzAmron4+x6/o5qAdvtV0oPdmZSJvvmdFAwf/QOCrETBek/PSooKWDGuDpjmRtp0Wx2RJGn74LpmspW7uioLFWbWP8UL/gnbi85A8k/oSLOkBbiACpYUfUi+sGYAWa/iub4hZY+tFQGaEDkfDPO2GhesXNhBxVvMv3fdtj57bATtreT4MSFdNuRtEAxeAABAAAl+TgFSv19dMAycu9WPl7/3crNCQKjvOvrwcF3AIBGoDASM1+fbq5qhryNK1+y9hguFogpzhu9R5/BI1G42BtJ2lXYJUEJrRU9BORvHob4J20rMwcfQiuLvBnApC0WPTvcrrsitLD+6LJm44TzohNuLXRAJrzO0C5US0h3LzP2/WmCRVICFfodwrkDrwCgSAABCoMIEapp20+VE/vxK6fuGkrf9VOHcQABCoTgLiNTlp35x5a/deeJwr2d/EpBnfpc7H081d0XeH/jtkf9gH7cRAN/EL2skEIP1trg1dz9KukfvAWetUaVJDc/X+ZB2VPNrYBc18ajT/guTwbVkBVofjR37t0bD+qScrGU515IWivkq5V0/WIFYgAASAACJQE7UTlAwQAALmEPhybo6CJEm3/8n/7ADayRzg4AcIAAEgAASAABAAAkAACACBukYAtFNdK3HILxAAAkAACAABIAAEgAAQAALmEADtZA418AMEgAAQAAJAAAgAASAABIBAXSMA2qmulTjkFwgAASAABIAAEAACQAAIAAFzCIB2Moca+AECQAAIAAEgAASAABAAAkCgrhEA7VTXShzyCwSAABAAAkAACAABIAAEgIA5BEA7mUMN/AABIAAEgAAQAAJAAAgAASBQ1wiAdqprJQ75BQJAAAgAASAABIAAEAACQMAcAqCdzKEGfoAAEAACQAAIAAEgAASAABCoawRAO9W1Eof8AgEgAASAABAAAkAACAABIGAOAdBO5lADP0AACAABIAAEgAAQAAJAAAjUNQKgnepaiUN+gQAQAAJAAAgAASAABIAAEDCHAGgnc6iBHyAABIAAEAACQAAIAAEgAATqGgHQTnWtxCG/QAAIAAEgAASAABAAAkAACJhDALSTOdTADxAAAkAACAABIAAEgAAQAAJ1jQBop7pW4pBfIAAEgAAQAAJAAAgAASAABMwhANrJHGrgBwgAASAABIAAEAACQAAIAIG6RgC0U10rccgvEAACQAAIAAEgAASAABAAAuYQAO1kDjXwAwSAABAAAkAACAABIAAEgEBdIwDaqa6VOOQXCAABIAAEgAAQAAJAAAgAAXMIgHYyhxr4AQJAAAgAASAABIAAEAACQKCuEQDtVNdKHPILBIAAEAACQAAIAAEgAASAgDkEQDuZQw38AAEgAASAABAAAkAACAABIFDXCIB2qmslDvkFAkAACAABIAAEgAAQAAJAwBwCoJ3MoQZ+gAAQAAJAAAgAASAABIAAEKhrBEA71bUSh/wCASAABIAAEAACQAAIAAEgYA4B0E7mUAM/QAAIAAEgAASAABAAAkAACNQ1AqCd6lqJQ36BABAAAkAACAABIAAEgAAQMIcAaCdzqIEfIAAEgAAQAAJAAAgAASAABOoaAdBOda3EIb9AAAgAASAABIAAEAACQAAImEMAtJM51MAPEAACQAAIAAEgAASAABAAAnWNAGinulbikF8gAASAABAAAkAACAABIAAEzCEA2skcauAHCAABIAAEgAAQAAJAAAgAgbpGALRTXStxyC8QAAJAAAgAASAABIAAEAAC5hAA7WQONfADBIAAEAACQAAIAAEgAASAQF0jANqprpU45BcIAAEgAASAABAAAkAACAABcwiAdjKHGvgBAkAACAABIAAEgAAQAAJAoK4RAO1U10oc8gsEgAAQAAJAAAgAASAABICAOQRAO5lDDfwAASAABIAAEAACQAAIAAEgUNcIgHaqayUO+QUCQAAIAAEgAASAABAAAkDAHAKgncyhBn6AABAAAkAACAABIAAEgAAQqGsEQDvVtRKH/AIBIAAEgAAQAAJAAAgAASBgDgHQTuZQAz9AAAgAASAABIAAEAACQAAI1DUCoJ3qWolDfoEAEAACQAAIAAEgAASAABAwhwBoJ3OogR8gAASAABAAAkAACAABIAAE6hoB0E51rcQhv0AACAABIAAEgAAQAAJAAAiYQwC0kznUwA8QAAJAAAgAASAABIAAEAACdY0AaKe6VuKQXyAABIAAEAACQAAIAAEgAATMIQDayRxq4AcIAAEgAASAABAAAkAACACBukYAtFNdK3HILxAAAkAACAABIAAEgAAQAALmEADtZA418AMEgAAQAAJAAAgAASAABIBAXSMA2qmulTjkFwgAASAABIAAEAACQAAIAAFzCIB2Moca+AECQAAIAAEgAASAABAAAkCgrhEA7VTXShzyCwSAABAAAkAACAABIAAEgIA5BEA7mUMN/AABIAAEgAAQAAJAAAgAASBQ1wiAdqprJQ75BQJAAAgAASAABIAAEAACQMAcAnVNO5UXFhabwwn8AAEgAASAABAAAkAACHwNAgbWmqawsAwvYnyXeOGBKyAgIFBntJMm82bY6im9W7h6XxQggFMgAASAABAAAkAACACB6icgZa3dXtOuidf4P/Zeyyg0kUh8lyYCkr6tybgc8tvYnm0bOdhYkv12Z0i7hDvfIoE6oZ3ykw/N7Wxvof1zWBjzLZYj5AkIAAEgAASAABAAArWYgDFr7e7aliRpYWFBKtpP33Mvx0gu8V0aCcTIrbLnoSMb0SYlSg9oJyOsvtFbZmun0hfXU2fOuNS0exTRIVL379eX6pqHSZ24baAzet4UbcdvPHX7LfeDRfwSJ0L7V3/EkWw26cVRM22J7777jiCIGZHs1eo9iF/iSqdU9P/u25+Zn7zCB8rNmzdvVj7gkjE/uMr2WXvKqLJzLj+8ss+JR31n/tCpiaONpZV9o/b9pqw4kJD1RX5A37CPB2tbEwRht+jqN5zHr561Gt6GfHUe0hF+yY69FfHTwe1uQeu+D6T/+U1K1oh4wHcp4rlClwqzHgTcig9IzRR/I5QlzQpgEy964Kc4eU//PsVMS96NQSjY4yfFYLBhxMduVAhjP3ggn71fuw8KH57YunXr1hMPxclXaebUqZGbvYd3bdXIwc6xcdseo38LPP+8qMIxysyRMWsNpUWT9fBc4BwPe5IkSfve627lSSYQ36VkEEZulMUvbUiSpGXbWaEJr3OKMQcSGgkQbtU6AmZqp+wb95u7q/SqiZZPNVA75V1e2BIJJ5ch2xMNnzOtXd60bVsbwmraaUb3lcQucCScevd2ryPa6XPYECTIhoR9rpG1t/aUUTXjK311fGoLJPj5f/XcRh5IM2qOVHO6v3L0oJ2qAHgNb0OqIMfmBVl49VKggekvqp3wXZqXEmO+sh+FKwKk9Q9oJ2PwKnTv86HhSBUMP/S138WfYhZ3stV26bB9KRYWFo7dV/2bW6EMUbJyZNxa0yek8HHopCYIVOOfz3zSXxY5wncp4tnIpezDY1B3U++gV0Ycwa1vmoB52qlU+Rvqa2q1NuNlQXkN5lN237cDquJtfOJE+3e1drnjjLnjLQmHBRdLtDkpRV08ijlrljaredqp/boHlU+7hts9taeMKr9o5IT4cs8gS4IgyBZjt5xLysgpyMtMjQ2Z3NaKIIj6nptS4cuYDiZoJzm1CtNtDW9DMHNR5c5KHkxDfU1BPk+y1cYfSHyXVZBoE9pJEGNWbKcAP0VIdLzgutxTvH4nXqiaxEmoD+rb6XeSpTR4KCp0kn9uvgtJklZtJgbFpL3LL8x9+yh64/Dm6KNzU5/YCvWByciRKWuNl8XCO2s9LUmSbLn0hokPg/gueREYPymJnIVi7xX40rg7uPvtEjBPO+VtGqMi3CPnXqvZYIqvLGxEkqTjJOV78YRq7fJ6M0NDh9cnGv3+n/Z1lrCyBWE16XT0b/agncSpVf3VspzPOYxtUXvKqOq5GIkhbUMngiDqeaxLpD8B0E5L0wJ6kARBuC2/WZO/cRjJV6XfqhXaKe/z51o10hK0E1Y9/XytZ4CfIlBlerkifJdYEctzVK3aSRnBbcCMJxy0k3E+mHeLTs9QWFhYtP/zJncNYvXV31qQJGk7Paoi4glfO5m01gS5ybs4zw1Zd7OjDAcU8Z3iu+T7M3Z2YzmKvPmft405gnvfMgEztdOGUUg7zTfxqUmTfDF1zs+xTXpEWXY54zYifnrQy8RsAxsu/u537ipiVGral4LYf273HXberkuUy9C4mbvePjfxRcFUwSSsbIaGxc6Klhq2q7XLibFHn+0ZRBAtfRMpikrya0+QY47knp8nMt+p+O2/B1dOHuDZ1s3eysrWtXX30T4Bl15yGxyKojKCe6NRUxOU6vzUiNXju7dqoLC2b+I5aknofdljwNkc0vOdMPqd9LHnPDy8dESX5k42No7Nu439IzyRGzttQfJHd/HPeHOoLsxHNDptSCvJiN0yu287NztrhUvbvjP9o59zcp+y0QOF0VPkY4xaNd2GIIjGS24YtwnLclIi/57h6TLzFBOu3DKi1E+itywY6tnMycbK1qVFl6HeW888LWBB6g9K3lwL8Rnt1dJZQdYj6lk5t+jcf8qaE4+yGdFmjksKq4ZoQy54ctpvaq9WzjbW9k06Dv51962P5ZfmWyPKm9P0UWuPMHKkOTURoW+/IVng91VgT3Rj8P4s5gatsr6bf4G5oPu9oZ1S13hlguA6RuxUVYQpSEZlncrSTrnJEf5zBndG88es7d3cB0xfczjxk6CCYD5xTPqxyj3Op5n7hL+OJ34w/rQwYcr4xSlNzBzV1DbEKA31vZCxHV0dXdoN978uOhbBqG/Dm8VZqhunR4Ztbxzi77xjW1flyXVJbz8bvON0/j7FdUfaKdL0ckVYLkvfvrq5VLWnw64NDgF+tsGb3cNCZ8U/TC4Si17z4XxC5JhDAY1D/F13B/aKiAp8+pHXKqLuI9HJS+zFvcHcNwiLAqPfqTj/5eF45ZBDIa12+DuFbOl05OjS209fCeq2rt9JqfqieZx2adqRoGYh/o327Z549d4Dqfc3pnYymXc2L/gH6qdnt3mP6NbK1d7W0a2N1wif7dHPeDyRJRDSD3XdTD6hznl09I/RXq1d7e1dWvecsPzwAy7Jh77tkTMjf70C0/Upu+htTZJkl02PSzIub5s7oEMzJzsHN/cBczacfcG8MymKSv27Kxpx0yfYcFCZOnIWmi/UfNlNXQm8CupNkqTC+yK/ZdMkhMyZPXu27wXhl2eTeZeZIzpvJq01PQL6qPTKIrRaQwOfWH66he4oCt+loV+JK88CvFBP3azoUgkHcPlbJ1B12qn44vpLVgZzosjBCSrWiqPh6rRTUmjAJSSi2JUnOkS6Lnr5Ruw9gFko7/4ZgpqPYaGSQ2Jpu3xoaPaL4O4E4bk5jXq6rQtRb1jo+xLVdGRycteKyE/w7WGHLgr+HAYEP+I0Wqx2Cgif2JDv1NrDN4GZVYWZB8aZbO20/cAYZ0Hsnn762M2ze9aEruoomFHjOu6ovoxe7+xdjyCIjn+nMunW/apPTkbSqdWq25Llyagm1BVO2i04x+hmWWVEZcet6Krg5xutDOC5/Br3bUVR1JuTE90M3KHxbS3mRvMrKL5L3BpCUV+e7PrRkR+9Ta+A7fNEtBNejrLDh6LgDCetfYmYgm70CGDfvrJ0Dl7s8rQTZpiCKlRZp/ja6eNFnw5oyCP/j2w5U6Wv8ZxvJSaeOG36ccv9+mJXZE6RjpWroDDJM9rJRI5qXhtiuo6olROtaCOVJH888M60B6MuCp4sPehvMH9pfYdzyW9F/WEpIq1PDJdvU5WtRNSOn90/qvOCt0xR+tpDGwzSubFXXLpePlaZdsp/e7l/CCvA2AM/N+WNZK580mmniD0px5rz8uXX4NCVu6KdUTjaCSfvooVl5GL2tVXdHQxmBzl1WxHPe8sw2ikwdHxDnjoi7bqtv82WkUylodNOf4Wt8bDmp6HxxOP6liljdz/0KvXYYvAlLmIaWnO43Zo7zLtYfXwCSt6ocElDicMCJ+8yc6QN3bS1xkkEfVgYMQ01kj22Pze4JbiA71LgUfI0+8hIZKj8FCoUlpI+4MY3RgBfO5VHLOUJG67IMVxnL/fKbSd3FdHp4rjQzOQsTaG66PGtZ9OHo0X5FN4vePWN1k5DLvccf2tXQl5WQWluVk70zuuu7irC/azPTfN1WpafrAAAIABJREFUfcqmLmh5vfnnJMuMtssH7s6ijb9+O26E9CWI/nvfUvnHxiGTiaOdHvl3RNNJ2k7ffTnlXV6xpij7bdKFjcMboYsDdnEW99dZHh6d+3ZffPT2q+wC9cfnNw55eyKTvl7XzU8lU2Pshlzt1MWjj6d3eMKLz+r8rNSYbcObIE1Tv2fgC10kZZpCte4vY9+PKKs/7stgrmh/i0qYppWiKLrfqU3Xnl0n74p7kqUuzH2bFL3+J+3afy4+V1jp+PHgcDTpps3aexzPFJV7cjxSBe38k8TyyFNNDh3GrT56J0v/qpRTRvkXF7ho5/yM23Yh5U1uQf67tCs7p2jn/DSae47TtV9+439NEJDW0w7cepWrKaPKS/Iz7oTOaYeUYZOlnEqH75LCriHUhyNjtPOQmo7eeiE1M68gJyNRtaZfl1atEDxevxNujiQHTem0E6cXUYZ2wo1djnbCDlOsqlTCNVztlHtmNlqE87sW47ZdSH6TW5if9fjq7untUbkpRh3itGC6593UE4eSjl/uxRn/Hlg2rJVtZSoobPKYOapJbQhuxVAfn8DRTvyPJLhhMO6Kzp37WxHgZ//PsaD0rLfFJfnqD/H3T3oGr/s+cMPEJMY0xlhZQbfOHr5LlIJXq/YhHdIp+k5CbpGmnCovK36TefeX0PWKAL82V15xXpvFly5uUQT4OejSqclXv792T+mB0rnV+xnTdpeXFmo0au2/N4kH0VoRJxLeMFe010v0jTKDAP2a6Hd6t/nguu8D13ucTYj7kJf/pbSoKDcl/dq4PejikPt67UYh7eSnCNjTW7n3j+SM10UadcHnW0lRvbS6q2+CmF1vWjvh5Z2bHdPH+THeaLyWTZuJARdTtW8Z1DK426LZQQvOc94yOu3k1bV/N5/DCS/RuzgtJmBUC0sLCwurPsHMVBnuc/TPEGSRD/nHyLuY1k7tu/fpPm3Ptafad3HyWf9hjZFHt9+uMuVJfQwfpR2J53uf/y6OmGRHkmSHjZwRCq/2/mhDkpbtvc+/5apZERR4eZeZI208pq01w+RcX+ZKkmSLFXcMbwmu4LsUeJQ6/RQ+DAEfp2SecymHcP1bJVBF2klzeCFaTKLtto/so0xR1JenqR4dVIR73C7uBz9aO7lfXPGA2/VaHOaNhFbTbR/NRn9nTRsLC4vGy65LhkDb5X1CMijq3to2RP2uXp71iJ6Bryjqc9gIvnYqeRxz4MCBA1GPOG0jenHsH4jcDQ3Xf3DSWR5Wg/ZwBBVV+mRrV+SyezAjXyRTJXaD1k4oAIM/a97oK13sln1DnnOazLwL87U6Z6B+6BYbi6TZzbpgtBPRakUC0x2Ebn4IG4EkUdM/b7FO805NRRqRJz+o7GPjkCjw3CxcSZ2nmpw8JvudSPwobLxllFHe0bFI+7RbyUvll6RNHvUJghwa/oFN5vu9PyCOow7piw3dy70etGjRokXbOZ1U+C7xa4j66Nj6iJvPFe4oj/fKCWiKHU87YedIshArop2wY5ehnfDDZAurcg8wtVPu4dGojNr+eYvXgiVv9EBfIfpwPpbgP3H45a7LsubtzYPLR7axqxQFhU8eP0dM0UhWP8YB+/2l0tsQTgw4h+o7QaM7uDo0aDNkPb+TAMczz01x4iS08EPImjfcJqss9eYu2wA/xbFbb2jX+IoI3yVFUeqE4ahz5sgx/ni2vIz/lsVGL0tI1zdsmsTJ2nT+xbOLy1Ju7rIL8HOIuG/4gq3M+U5lH2If3Al7kCpYhj0rMRTJswjOMHZdv5P/MK6gosqeJuxBLo/cMBx8RpnUTvLzziti0ZO84xOsLSwsOqy+zX0Xfkne3NWKJG1GHNa/ZXTaSTFgxwvuu/iit1bn/HjAULrjzA6itRPZbhXvLffh0Gg7CwuLlpwh13mnZzggafHHLY6QzlZOVJAk2W0rOw4BZbL47rquyDvp0G7oL3/tjoh//JGbOZYDft4ZLzg50ro1ba0xQep/H/q3J0nS2cf0vHt8l/rQpY5Kiz6nx67pa0OSLpNP6Etbyjlc/0YJ4GsnLoA8U/OdPi7rpyLcoxcL505kr/rRYKIUrZ263xc8AGn7L6PurKUZ3DcTNxEmj2+vbo2lnXoFvaaospvL6TFcXbQDzj6GDkN2LKffSSI6wzkqOsujt1Ak0fNJHBYL8ikRruCyXO3E6WfQhqQ5PQmZgvScLn7Y+HaPw6+CtKdt9kSUpkToy6j40nw0VtD518ts45t9aBSSTn1DmA9tKH714yg0rwkNK7B08Zq5UZWczWnhOSmktRNWGd1ahnoB3VYIa12qfweCIGx9rrDBFiknIBN4yAFO/wF7k3eA75LnjXNiWENS1qP177+bFcUi0jrPPqStc9x+J+wcSRZiRbQTduwytBN+mByElXmIqZ3odDoaPK33V7VAPZvzL7DWkO55x3ji8Mudl2HNu9uHVo5pb69XUI8MZ43yfIie4JPHzxETkWT1Yxyw2qky2xBO4NVw+OZ8ywA/xc6zwkm/72LcA/wUQWKTmjBG4ukyYtLllwfTkHYKDzP53ZtO594Y4az2j1e9tOvjCdp0iqIqUztJFczzSOcAP0VY/BPWgU477d/J6YtCNzPONQ/wU+ww4Ix2+zG1zp78vLPJkTxI+F9TkiSbrTJ4y2zojJYu+E2/cZxOO/FmK6FUq6ZakSTZdh2aX83/w1EatHZqsEhQ7x5v7YbEz/RTnHdxrDfahKjhoivsiyb7yFjUGTVgp4ES/Xxz+5ROTswgQNLSufP4FaEJWdzv2RSFn3cmXzg50ro1ba0xQep/aUXk5BOnvyRxhO9SIgBKGwIz3Ne+udewuetPpH4r+4pJZRquGyFQRdrp3dzOKsI9djPv4wZFUYU7Z6CBf+OiOd3/uvlOqYI5MpnKeKSdKrBnlOmnkbbLewQgo/5L/JJmdnZ2HpseIVzvD2g3PeJpp9LM+B0Lh3Zu4mCJ7G7eH3eOvs7ymCDszaXHSpELTC+yJFJecsfsjT8ueKdKrQSAuthM7+9Ej9nr6C8sI7r7ZswRTmSl//2BVne3n31GtzzPx0PDviOI+oP+4XY2UnE+TiRp3+pH74CzaTmsHSqaczR0CquMYuYijdZrx2tBMDkHh6PS4jJ5tXsgWn/OuecvG/cei7p861F6Vj6nTnICwHdJUZg1hLa/nZYI3n6UocrCzpFkIVZEO2HHLkM74YfJKYPKPMTUTnQ6uTqWTkTmzv6oLo07xr42dc87t3ZpnRo+cfjlLpLhkvf3jvlO9XRFQ86msyupiDiUuoRPHj9HTFyS1Y9xwGqnymxDOIFXw2G6ylFg/dOJyL/1E1I1x5SswcomzqQikuEye78SDc9rcjRqa2Li2Revk7PV+XxDVxcYnc6jN7mjINCt4nvjUDqPnzBIZyVrp/K86/fOjAlD2wHz51z5KULj9G8UnXYy2BuXhhYUeYmFwx6Y1E7y886GLXkQswB13PTl9DzTTnPCR6GvG5P0732dduJcoV3eXIY6npqvFqpZCms3JFo7eWwUzGPK3P8T0k7jj3HfxTeWt7KwsHCeG828i4+MtCZJq8GhvHcxm9WynGdxx4JWzBnq0chG+6XGpv2CyAxOrcLPOxPmt6id0JBL5/ZDfgtP5rBmMgy/dYVAFWmnzDmdjGmnMdwv7ox2ErQFpeqiFxnqF5+4027klQquduq+3XAYnYF2Kn9zYpqbgWZiBBS+djJc3wwrU3K1k4FyM7TkmHjx7Z5OG4RllPfuxYsXL7LyueKn/OH6dgRBWE+I0G6rlxU6tD5BWI4M52/3h7STlUunccsPXM/gDzth0qX7pfUtVhldmCNYyIIpHvp3zBHOPn9FSbtGNOaXp2VDj+HeQdeyBP1fuC7xa8i9lc0JgsDRTtg5kizEimgn7NhlaCf8MAX1oLJOMbUTnU5J7cSpS1LfSgyfOPxyF82sOj1279JhbRQkaZZ2wiePnyMmnZLVj3HAaqfKbEM4gVfDYfppe2Pa6aiSO9iTTl9laieq6P2t8Xu5asRPEbS156moHa/UvBYMpZNdocHwQCSdlaqdck9Fb7MVT4Ac7SS6OKFp7SQ776Yr0sV51khXSP2NP8a+ZXTaafIJgYldGdqpy6bH/KSW5r17+fLlS8G7+JF/B7T00uRT9Lv44AgrklSMOcx/F/MD0p6VfHx4fJEXmhjlPPmU3jV+3pkwvxntxGSIKv9S8CEteqmXFUk2/fUSd9Q96wQO6gKBmqudKk7/7tq2FhYWjQw+7+tDxrfLCy/+rF0Xrfn4nf++zOF8qaP7CuqodtKT5B09394djUkbiSYYZe37sT5BWE86IRiJkRW/bVZXFzRrllS0GLx477XXErtI4JcRhW8dapNbmvf8hmr/Nt8l8ycP69O5uSPqtCKI+s1/vSR411E4LmXUEHwbGjtHksYraCde1aSoWqidyvOenA+c39sNjfQhHTtO+Ovia863YEH+JE+x6xK7Uqj+CzodqKEaZCKTrH6MA2ntxHHBPcRpQ7juv/5xdWsniqJKNZ9vPb4ddP3cr2cO/RAW2Dho3feBforAwCXc3T2qVTsVpp9ujIRT4NR7L18VczQdPWYPv98JtBNTw+l+JwPtxNwW/L4I7EWSpPUYNA0r658hViRpN/Wk4F0s8MKevt450MbCwmLwPnbVyCrUTqatNTZd7EHiurYkSbr8JhzAwTpgD/Bdsl6MH2Qd+BFxnc7tBTDuA+5+YwSqSDuZM2ZP0KdRcdBPtnVHvauzIjlNNj9UfLs8TrtVrmKyih2qowtJrnb6SmP2vk6/E5+m/izzn5/qo2F6e9692z+wHkHYzYgWyhHkuCwnNfJvRkHZNBvks/PKS4PvOPhlRNGjknrvFI5O0SfM2FF5wYuzi9rXI4j6/ffq5nlLOBd1KaOGJK9rjznfCTtHMtYof7yxM4p93nlB7v77Ha1R2GSVfiQJduxUVYQpSF5lnWJqJzrvkv1OhmP2MJ44/HJnMluWnRK1ZXa3htqF+5FqUhoupsK4NfWLX5pftd9JKtmYbYiU96q/Xs1j9kQyWF6SfSE2xDbAz06ZwJq7FJ3OY7fwW8VK7HeKj92oCPBzOZMsfG/K1U4VGbMnJ+8iWAWX6HFr/Xab5vlV+50EqWRPM0OHWaFhevvevTvwoyVJOs0+K3gXlxRkf/78OadAP1GK8fx0ew8LCwu3paw2wc87EwR2v5Npa40JUv97ZZEjmji21nDimN4NfYTvUuhT4jzv+Bj0JUtswQ8JH3D5GyNQRdpJ/loRo1IrXTvlHBuPujV6BxnMi2QKEdsuLzwxCfVJdBBO+KF08/tF+p0M1oqgbdMKrRUha29cJpP079f8ZkxR2SfGWRNEvR/8/YfUIwjnX2I4PXX8dAkUlHWT/gtDLqVzWnfsMqIoeja8xErowmhFz18G9EDbQXFWlRB1RlGU0KWcGpJ3eDQaLdh00VVuX9uHE5MM1tnDzpGpvXFHhLEDL96gdfgJYmgof4mgogjt8hlctYAdO1UVYUqRr+B1TO1E513GWhEY2gm/3Cmq9PODiA3TujRALZi2r6kCqokmhl+aNUI7yWpDKlgnzPJevWtFSCU559/+ghUg6HSGxqVIeTG4XnnaqeRUFOoK8/pPuKRcTtIhtHqeSL+TyFoRzSq4VoScvBvAMLhAr5fAW+PbwA19oUZoJyr75EQ7krT8aePG4ZYk2XChwbv4vm9rkiRtfz5vMOH3vm97CwsLJ59YJoP4eWd8YGsn09YaEyT7++HgCNQ8/rBHfPYW646i8F1yPBk9zNjVF2mn8cLxmEY9wc1viUAVaaeSoz6RRtYo381tSiXmO1UC5dTNaOUby6FhfCtRHzK+XX51EbJrrcYo9Wu/UhRV/jp0uHa7XBHtZPUDf43yx1u0a9KJr1Fe8vjILC83J9eOk3Ynis7+qcL5ToUnxyNbuv/eTD0Y4RG9VoTBXAWhM/15YfQcR4IgbW2tCKLh7/EGrbLepe6I1wdl5fb7FcYLfhlR9CrM9Xptf8LradQkHV27cuXKLTH63qTbK1taW1u7LIoVfGt75IumapHzzrMTuLBdyqghVBa9DVb95uMCYlLf5Rfmvn0Q5TugY8uWaANhrnrBzxG9Ekm9zn6JXJlamhbQA62J0XS1fguMsquLGqBlB0eEcZ/CT6enoUGpitnn9f7xY6+KMLlVJP/IWO3cZdyRKly/gmNM7UTnXWqN8r679XVJhtLALveHW7ycKk810QTwS1NGjnRwa0YbIihp0VP1vZCxHV0dXdoN97+OOXRJNBy0yBu99rf4GuXHOT0/bACVON8pM6ZDsL/z7uirgtGb7y93Qav8qWLYSFE6/RQB+4M/85xq3ieuj4/5K+GJvoeK8VKYehwJG2WCSZsU+TC6vxPd7+SkesB7b1LZh06h/igx7eQ/XLhG+W56jXLuKq26lJY9mokGBO4N5ofO5IMuI3l5pyhT72K0TjdJWvYNfMp/yyQf9129evU2zltGvnYqjJiELPJB+428i+WN2UMLdJ2d50KSNo6OtiTZZKnhuzjvxAQbkiQbz47i20mFd1Z0RK3uQP2yGPh5Z8oAJ0e0W5PWGhMk86s+ORXtqdXKYMVDxgH7i++S9WLqINGvDUmSDgv1a/ea8gH3vzECVaSdqPxrdxowe+OmZGkKC4qeJKTTe+Pa/vqS94xWnXYqT/XXiidP/4e8Zo4tQ3y7XH1hDlrujWj00/qzSZl5RQWfXj88FzDNvVPXrg4EQRhqp3peXgN6LD5251V2YcGn5zcP6/bG9doq3OMIJUZz5me0uwKylqxGHRV7EVShdtLNALHsuebq62z99rjFXFkhWztRmvjfGyJgBNFs+W3eS5ulL3LAKij9bHj8MqIo3e6fVu4zd8amvcvTFOdlJscETW2L5IPrL5f1qjRPOQHtTGXl6XPy/ps8tLNkSX5W0plV/ZESrj9wv96ewHYpo4ZQVElqYH9tJxONCP1PdvbfNFeonfBzRL3cMwhN2CJbjN16XruX67vUyyGTtfsCk9226ZcCpqiSO6tboRgd+yw/mZiRU5D7Bik3NGCPaPZ7PHeGOzbPKgmTUz/ur26N3uLOC2OwqxLHN+9Qp528L+irOueoUMNEkH9+HpKY37UYt/1CytvcQnXWk7g99N64tmOOcFowOUoDt9zjfJwrOEKPl2f6BLs05eRIFw9NtUa0ISI5119SKydy9sbF0gZ6z4Kj4pgLm+m9cYPTszKLS9ScvXEniS7BVYnaSfNgGtrc1r/XpUeJ+cUaCu2Nm/U+1VeJNImd8jbH+NbtD+sUGrH3xfsszZdiTV7q8/9ma3fRbR7zTN8qsvmj5VDQvnUvs3P02+N+4b4RWLfGtZNaN99p66j/UlPyi4tKCjKy0kKiQ7of2uMmrp1CPA7v+yMl43VRSUHh5wRmb9w+onvjUllbw9DqF54xqensg6tPGVpMkN4XWEbeTb+LdfvD2naas/vyY/otk3IpZIa7VoAsvKLnKV87UQ990Y5Fij5/xWVIvYtlaydKE7+0iXbxcbLVijtM+8bBpL7o3RTZHg16+PxzNe1tTmHBp1f3TvsObY6GCjuOOc75xoaddzZ4jBzRbk1aa2yQ2oPy5zv7IeKtViWI10vWOb5L1ovpg0u/ooU02vs+NO0UXHybBKpKO1GU5vLfsTbuaEVy7j/LIbejOI8iglp12omi3oSPQtvDOfQPSNI3afqSlGGXl2coJzfir8tGEM4jDh5chDSVoXYiZoWEj9DKLb15bO3hm8AZjaZPh0Y1E+26gNovy2HhhpsVUhStnfRB8Y84e8uYYfdQGWEjtb1nvECnRHCsaPnaiSq/vRytVU608zU9GllPQntUlpOamsGoXRllhLYmifuzK9qcV/Bn3XHJJY65S1GapMDetgJH9KmV51+3uJOusF3i1xBtJtWpyjWTe7Z0sraya9R+4LyAuMyyiz8jkcftd5KRI6r01fGpLQwXGqzfaGToU6YTTwdaneDfy7DEbbutucHf+RmfJ9qss/LDZOpFvnKs9t0/PNTkflyMF8lf2soXLXqCIFqve8D6zL68zAOJWf6fZes5UW/Zbkm0/0xwb+QCY8yeNmSscs9KSzHYJJpNl/kHmE+HzBxp01PT2hAJSOrjEzjaSfAmkvAjfbno2Ypwf/6620jPdDqfypEuHO+VqJ2o0pTb+11F1q/zUwTv9n+j7zxG0Relrzm0wSCdfs4Hz/F259anNOfI6Y0G7pUqUSPVaL8TReWcPLOVv86en2LX4cMPoxuLa6fj2+8f0i4vwS4J6Occfpm3D60+ndT7J8qWQgh+igNXtBuNaN3JzbvpdzFFZV9b2d2B2QqJfnGjd7edx7JY7lvGDO1EZRwaw26yxIas/5JIUZR87USV31nRCn176iCypZQWUs4N3z5oeLDgj7TruOj8O25jh513fRmZzhHj1oS1xjhDvyXPD4xqaGFhYTtwl0h/pHkuub5MHecrJ6IS77/D9Kw3U0HB/VpKoOq0E6rgqZdS586NbdIjivQ44zYifkbIywfsAp4ssKrUTlRZ+p7B2tEvzcftuvuZ3wogRYLUDdb61yg7GVcCFwzu2MjOytqxcft+09afTlVT8VLaaUpEce6jY8vHeDV3trGya9xl5JLQe+ycEzbzugNNSug0z0aOLu7jgu+Iqqsq1U4UlZd0ZNmIri2d6KXmtMZiRbVT9jHtjrgCJSDMuOlzeWWEdt19cmbLgqFdmjraWNm6tOzcd8L/9sW94qohXZzqJ1Eb5g7xaOpojQRHfSt7tw4DZ/gqHwnlAwoR0yVmDZHIdPm5WWj/Yo+t3E4i5BY3R1TZp3tHfGcM6tjYwUonomxHHxVsb6iLvODZuS0Lhng0cbAmrRyadP5p/t9Rz0RrHn7sVFWEqU0uPSJfdDdJCZbSl/G1E0VR+amRm+b+5NHE0Zq0snNzHzDjr6MPhPvSmqM0eMmTLHeeq0o6walL5uWoBrchHHbqO0GjO7g6NGgzZH28WAc/xynWoeb9mZuqUeHbGwevdwrZ1lUZ4Z+cKRluZWonNFzh6dM475O72u70R6ulB/o32rtj6NnLJ99zPnqxedB8OJcQOSZ8e+MQf9fdQT2OH1+VmP5a8EmFdYzCzlJePdz7n78d9crEPO2EJrReux058uDWhsH+jfeGDI6+EvVRQ72W1E4nNUXJKRcnHQ5sEuLfcO/uCVfuJnKnhXITiY6/pD+9POtoIGfzKL52QnmRlXeT72JtCtRPo7d5j/Bq6WJv6+jW1nPA5D//ufZa8JYxRztRVF7ysf+N7t7WVYHUDv1XUe2UrRyL9qTqslWwrjmXpSbj2r4V037o3KyBnY2NfcM23Uct3BL12PBliN5HGHnnBm0qR6xb49Ya6yw/9dCc9mjRUbs+QalG6jBqv3FdsoHjHeTSc+m7bn6K5x5cfXsEzNNOtYrD5/gV3RzQRwKrpgO9NysTP1Vx6nWWx0SloCWt4mhrWPCZ+wcjIdAjwHDvrBqW0hqTnGfbuyLVOlSwE5aZ6ftwaqIzGpY4YEe68JOBmSFWmzfdRz7b2Wf5n9OrLUGVG3Hllnvlpq1aQ4M2pFrxQ+TfCIHMA0OR0ugdZKKLpiZk17i1lpcWFbRkWBs0zYm07bQ4Jkvy1Ybv0rxcP/JHgyvJZhN2XH+ZXSwyENK8YMFX7SFQB7QT+lDyWPl7Pzcr9CHHzvtiFZeO1FfbKo62ZgX/KqhXPYKoN4i3XkbNSmINSk1p4YfUC2sGoMUavusbIrkspMwUZ4QOR8MS7YaF6xc2kBlEzXBOL/dEDthZy/NhQLNqyt0gmlp6AdqQWlpwkOwaReB1SF9LkrQcvK+WjC8zYq3dXt0cKRZL1+6/hIkMEOFgx3fJ8STn8EP0gjZWzLhNksRZs15O8OC2xhOoG9pJWwzq51dC1y+ctPW/Ki4U0E4UlfZ3J6QDhoRVfH5KFZdWtQX/IhhtICz4U/TYdK/yuivL0oP7WhEE4TzphNgcumrLusyIC5QT0R7Kzf+8KdNjjXT+Fcq9RuZbdqKgDZGNDDwAAQMCj7d0Qbu4Dj9Uq97F4tZa0r4589buvfA4V7K/ick+vkvGh+zfsg8Jocsn9WnfyN7GErSTbHy13kMd0k5fq6xAO5XfW9sWDRcbd6xiqwB/rRKrlni4NnQ9S7tG7gNnrVOliU85MjuBJY82dkEznxrNvyA5CcPswL+Wx0d+aHiE1dSTlQzna6WfH89XKXd+lLXxDNqQ2lhqkOaaRqD8vq87WlNhohLexTWtbCA9tZoAaKdaXXyQeCAABIAAEAACQAAIAAEgAAS+EgHQTl8JNEQDBIAAEAACQAAIAAEgAASAQK0mANqpVhcfJB4IAAEgAASAABAAAkAACACBr0QAtNNXAg3RAAEgAASAABAAAkAACAABIFCrCYB2qtXFB4kHAkAACAABIAAEgAAQAAJA4CsRAO30lUBDNEAACAABIAAEgAAQAAJAAAjUagKgnWp18UHigQAQAAJAAAgAASAABIAAEPhKBCS104ePOR8+wpYAX6kYIBogAASAABAAAkAACAABIAAEajgB0E41vIAgeUAACAABIAAEgAAQAAJAAAjUCAKgnWpEMUAigAAQAAJAAAgAASAABIAAEKjhBEA71fACguQBASAABIAAEAACQAAIAAEgUCMIgHaqEcUAiQACQAAIAAEgAASAABAAAkCghhMA7VTDCwiSBwSAABAAAkAACAABIAAEgECNIADaqUYUAyQCCAABIAAEgAAQAAJAAAgAgRpOALRTDS8gSB4QAAJAAAgAASAABIAAEAACNYIAaKcaUQyQCCAABIAAEAACQAAIAAEgAARqOAHQTjW8gCB5QOCrESgvLCz+apFBRGYRgDIyC1sd8mRQQzSFhWV1KP+Q1bpHoAJ1Hv/pwHdZ9wqgDuYYtFMdLHTIMhDgE9Bk3gxbPaV3C1eHnhNaAAAgAElEQVTvi/wbcFZjCEAZ1ZiiqKEJkaoht9e0a+I1/o+91zIKa2jKIVlAwDwCFa/z+E8Hvkvz8gK+ahWBb147lb7bHxnsFvJ397OJz8trVdFAYoHA1yCQn3xobmd7C+2fw8KYrxElxCGTAJSRTGB1zrmxGnJ3bUuStLCwIBXtp++5l1Pn2ECGv00ClVPn8Z8OfJffJm/IFY/AN6+dPlzxDFj3feC67wND9+bxsl61J5qsyBunR4Ztdwvxd9qxrasywj/5XbaRKL9kx96K+OngdrcgOrXrvg/0m5SsEfGB71LEc4UuFWY9CLgVH5CaaeLzpSYr6mbk6PCApiH+rruD+pyKDn72uUgiZtwwJbyLXq6KMEUjqraLsd52JEl23JRiMgUmXKoTtw10RnaVou34jaduv9WX7JeIKYSpvyFhn00mwCwHVxfZGcT9w95Ms8Iy8FT2+f5R3xmDOjZ2sLa0dmjcYeD01WF3P1TPqKbc5JN+s3/o2NRJYam1bknF/HNfBCmWLiOBw8o+LXyg3Lx582blA32tqOwoamx4hQ9PbN26deuJh5J5zwj5P3vnARTF+f7xHcf57TEwXICBARl0VMY21rHiqLFl1BhjixrLWBNbVIzGqCl2UewKiL2gYkM0Ctiwk39UNIqKIhpsIGJD4EAOlf3Pe3d7t7tX9j24gwO/jOPt7b37ls/7vLvvd9/3fd6vSJWNOKSSFCJr7yDSOv1/vmD2WskVpf0qZyHqrNsnQse39mBZlvXovORqWT4IS1s2C9fDPs3aZ2HMOHeFQtFqWbIJfmlhHViWdeq/16q798UZ3hoFrn3Lpv3/2+02uiebyKXMKdvZPH3roA8pk3n8XAkIVHrt9DFzy19hNcJXtotNSiuzcaeCh7/vDlbqNJteCwW3On3/pWmbKbhwJtQovEntRB/SdEqlOZt9Z48yJEgZfcOSCCx4MDvCuOzLOl96bPKJTRWnlZm2R5xWZsHOwWUUkSB1iyFzz02tT/p/vr3XJUlrp5Jqp49PD46q9z8jYfY//yF706SiRYDRLoeqa0s7uBP++j+WDVj7QJyWpToSh7T5t7e7exNQdlPINs+wDSN8G9mPKI1+kWb7l2a004ekBc1YlnXuGp5mw+xYiorWQgpSI4bXJoWqNSH2jaUIK8pvsE/z9vkyoh8Zaey1LcuoNnMODnViWfbLdY+MfrJ0wqG0k+1tnr510Ie0hBO/VXQClV47lUMFqc/Fr1aGBLlt2xeSlpVZWJSnepVwI6oVGVBaOT7V1ABM0a3RZGQsbNqDbJXl99/0Ie1QcApNUnjq5EplSJD7jgPhaS+z1EW5eS9OXN7TkMjINTMeFRlniiJO44tkztgjTpkky/hni4pIlBcLIT/dXNycPF8bTbsoP4/n1sKGDMO4T78gir1Mvqj2DSJdeJuMOz3a2N2JYRjXpj9uPHf/eW5+TsbdU2sH1mMZhmE7hZbd2xWO4z5dn9OQjAN8Nfdk6pv3Zpq9VXVk69pA39R835TjTGunN4dGeLEsW33iqTxbV4fp+KyykILrCwNIv7n+rMumpjSYTsFhz8I+Ldhn6po2LMsqx8RIOxyfzk3zUygUDeYllqJiVQeGkJc+5TTuZCebp28d9CFLwRiXOjYBaCeb18/HlEnhS74IXTvjkfDx9OF6wnoiKo7ekr7g5zju7aWOIUHK0KPyC/XpQ9q8XBwnr0k+JI8jEnH9vHThO3z1pTPrlCFB3rH3jCexyMdpfUHsEaf1ubDnFRYUkSRZ8yELz0+twbKs1/AoM4Ohopgqh3bSlsK5+waRSlL/u7ApUWcNl9wSldmuXz5d/sOfZdk6v101I5tI6tbVka3zi76phb6pSe306V5wazIdqsPqlDKa5GCtheSe/qkmafXjYkw8h2xtQHaOD/ZpwT6Lr8wm95eav/8jscSU4JYsy3pOOSXsnlhbU+Wqnexn8/Stgz6ktWgRvoIQKHft9OZiByIbjknXqKefqBsSpNwaf10PMvfy12T44mC0+n1y8skhe0JrhQfX2r51xIWbt6WvVt6s36efKac9CGqZYH5mbmHWUc3apFrhwT5kbVL0kuTnbyV3HPrUdfImOuajPuvkoPhxTPWQIOX2MzdFpzVfzEEoYciPz59emXV0S/NNyzxDgtzWr2q2O2Jswu277yVF0sSufnUy8digyJBaZG1SaKfDMaEPX+cL080621I6+VDCdut6/Ry+d//XLSRIGXYsXpyUOuOfn44fnphw/5U2Zqvi1FxSmPdkb0JU78jwBhuCvcNXt9y3f9a1h0+FAs36ODnZsus4WMNTiM7iceHzf/bMH92zfbM6Pm5uXrWadhr8S9jZp6ZchOelRC0Y2amRn7uHX6P2g/7Yd/sdd36qp6n1TvQhOY5LnFuHDHuMjZO2HpPZtqyd7i9ryTDM/yadklx7eaYfwzC15hpecaav70xkytAoVV7K4flDOjSopnTxqB0wYGbETb0VSSKhHHdSPYhbPblPQB1vV2c333pt+gSuiX0osmSOexXxDUm8+7YXkiRuzqtHfhh8oBSDBR+yEiMXj/s2oL6fh9LN279Fj3FLj6RK18IY0n0c3lWhUDiPiraEn7aOKMrOGci/u713Vv82db1dXb3qtv/+tz1JQvLaiiY0zP11WPefoRinJpEJkC2X3S9KP7t6XNcmNd1dlL6Nu/4YHPdIYMv3lrcmsXUMfWK4UnekOjrGldjIzMvC1mwUzOyJ/IdHl/7QtUl1D3efeq37TN+a+LpY+76gzZpUyUWqh8fXBvZv38DPw82rZqN2/aeti/tPZCG3FzcVTaHUz6XUH3QK1c/EMzHu9O7Y2Gosy1YbEyMkyhdULnUuZWVbMg7cZf1TScY5TnVsLFmtVHf2FQklWgvRx/jx/PQaCoWi2rSzFjS7PrSNDmCfZW+f6pjxxANQu9X3RZX4aldvou4HHpCYKP3ziEQnq51SV5BhLxcjv61XZtcidjz/mihTHCfbNgXh7Wjz9K2DKqTqekj/Rl4uHnV7BSVIeAvKg8MKSaACaqf1t/bXFvXmg3wiz10XvUSxRjvlP5i1y3h9ztLmJ+4+F9Yor53kU38R3ywkSLnxxP8JL+c4jnTug5QbjidIznMcZ1Pt9DwlqoGIj049uu84elLSlXuftjBymdE6q+WdLqYZJnFZpUnUSSNI0pF7jQeYhKW2Kk6Oy3t+rhsZypP8C6oZdfmuvithZZwcTdk1ebaCp7CMFo/zEpd09tZ3yPQHbLWe4cmCLifHceqUsB4++gCka8X69N2xcxrpo4l9RdCH1GTtxY7eJLa+EXRLH2ytnUL2DKsu7py7tF6cKLFPLUMa7ZR9cU5bpTg+MsUw4I9LwkdW/pNrFy5cuHjXaKDtv1UB5OLv95f0ZXzejbXf1nIyWkvt83V4it5CRRZRHD+VGEDL4Dui0+IvdHVEV3a9dlq3c5CPmJRLQJCBfMm004KIeS0kq8j8Bu/P0L9CebaxcxWGYVqsTBGXkFNFjyDSqcG8a/qwkhCWvn54uKW3r7h1eHQNC51CfDVItFP2pXkdPI0qyLv9HEGnpnTaqfjh6g5OCoWidfBtI1lCkzrHpW/+isyoay3p7nKc6vBo0g9usuC6hBKdhYgQFhweTRq+tctdRHFY9QX2abBQli0z++Re7epPKrqf6A6vPjGJiPDOYSJ9Tv880tW8bbUTXevgjc6uNk/fOihCvonoR24Imqd2p3Dj90Z8ifBZEQlUPO20ueOBzTPuPHtSoM5TvTybGNlIoxO6XxP2kUQ1kXB2uTLE3LjT+xMnyPocjx0HwtKynmvXJt2MDli/5IvQZcOSBV05nXaiSP1FfFML2ik8TqedPiWPNaFwhPKA9xVBH5KU++m8bSSSlnHXE3Peq4u54k+FGZn/TolYqgwJanT+qWAwrPDMabIuy1NXdsLz0o2o1qTsawL/47vwxR8L1GqV5l9G0i7iK+JQYgZ/RnO+SLCMKXt71FJlyJJWp+9nGvUfDLViXZwvVu1a8kXo0tbHEy++ys378PH9+5x7aZcGbyEne9/kVZ51cdKV3TqehvLJHSUvb61QKFybjd16PuVFbqH6ffbzu6dXDvAnJ3tuSRdcnrmrvyuZtt5ywo5L/2WpCnIybscs6fll+3bVpdqJPqQ2+nsr2hD3epNOCFKzcGhj7dS6VdcOM/Zfe5qdr3r96HJkYAARPlXarnpoIgvy2inv9GRfsmKp3uC1p+5l5OTnvbh/fuPIxs4Mw9SYeEJeD+UeHurCMEydBf+aSJ7iVHbsBFJ3Lg0HrohJSs/OV716lLBlVEPSD3YbFc1bqCii9A3dyOvf0YctvWWgqSPqsuvGndq07hIQuCfx8VtVXlZK/Np+tYmmqdox9LEue5/UBSrdX/o2zTDdN9vS+TOaz/dFgg68dtypUduObUdsuviAWOjz5Lil35LhRsZ32nn+LsK93tWPLDRrtPCG4GKOy4keQsg3CTblD0wEzNSXVweGuBG/DPUHrzudkpmb/y791rFFPdo1aaKUaqe8+EAyVc210bCQ0ykaC0m9sHlMMzeFQuE/+SRvIcKy7yCv59neO8yWXTrulHdyMmmUnkMOvZbmlS51juNe7xmgVCgUTRffFFM6PJyowebL70pjprEQ6TV/z/ZjWbbeHMOUDmkIW36HfZaTfXLcg7UBZGbBhJOCF8vXFzRWKBSNFogqn/55xFuGLbUTdevQJW5fm6dvHfIhX+3so9dOHcP5OyzPEJ8Vm0DF007B3/wrnE9XGK8RAMqoa8YOZbRVY0k7FSYNJ6MZ4QsyhG+HP6Vc2eQWEqQ8cDVDX7s67USRevlqJ1ViPyLJ9h0QTwXKTf9n9tm42YlpBompThqhKfui56Ky37uyyT0kyPPwTaMeAMV6J44rzDzXkaivIN8du6cmXP3r2cs3Armmx6k/kF+b9OnV2VvXd99KkThsz0qKIELusImpXvJx0pednqe+SLIHRQ/iIyIiImKT+T6b9oqsnd+Q7lr/vYY6yo4cSG6+zeZfEzz+uNeHR5NhJ9G4E31IXfauL2ikUChqzf5bNruaADbWTs5fiyTixwdr2pLedof1Jh4wstopd//3ZMyjydxEIaUPyStaV2UYts8e3UxRcwUtTgv/ijiLaLL4jqjHai680fnUNaSPouy0VmSi2fsHk655jZn8QHPO/gFG4x6GN9JkRNFlfIywBBxFHdGXXaednLqGCze6yz01SaNzemw3vn/SrCfRaiemwRwR+1e7+xNJ5P/nVT2s3COjiD6uPeuK4H6QfWAwUVQBqwSzAPVXyB6oDg51VigU9X+5IJx59/LQCB/SOoTjTrkHh7ooFIrm4nb04e6qts4s69p/r7GFWO1n78n6riSJpvOvCW+nmjJYkXruXz+Q2bj1frsqpBQ1jIjB9mv08wX1aCgsRB+WP7gd3JRlWZ9pl/gT9vyEfZaXfXIcd/U3Mi27rsArBBH8LOs1NV7wvpOjfx7pLcWG2smK1qFN3r42T986KELmXF3Zu4Gni7t/j3nn6OZ36AnjwNEJVDztJFhdo4GrTo1yDwlS7jhnbp23Je2UcbI+GSMymkennXcXJliFpdNOFKlTaiehZdhwzt6HW6OJdtqzWzBmJkzKcKwt+9Z46czj1xfahQQpw+OMH63ymkQTe3Z6wpiI5fxUwCC3DRuGX7yeqDLdL6WM05Bt/dGjYz4hQcrdCRKfzhyNTwv6stPz1GesxAfG6zTIJCKWdZXu+fOO9MLF2ok+pC571+Y3LEft1FkqkrQrozxnGFsdJ6udrs6uwTBMzTmGVVXaMqYEN2cYxm3aeUs1UvRwc083hmH8xseZdUdt6XqOSwvtRAadBgk0r+aChJlkYYnPtHO6y28ubiijnVpKprRR1BF92XXaSbRaiUwK/Wt4VYZh6i9OMiolvXby/FlSb/e1kyBHHjYIicIzk8hcQZ+fz+n1YXbkACKdupZwOot21bvLhFh9hJoiZO/7TqqdEn/X+OUQdCK1hU1Z1op0JX8x9h5JrZ1E6tetX6R0KR1ZWWhF6oVnA8noVfXp5/WFyt73PRmM6r5RNM1KWwAKCzGqVm2fz3vaRaNf7HAC9lle9knatnbJU+cwXnTnHxnhyrLOg6NyaKra+Hmkv8qG2sma1qFJ3742T9866EPqseGgEhGoeNrp4CH9Q0VbD8ZeJcT1Y0k7pR31Mtn/zrv6LVEgB6L0aem0E0Xq5audOO2suaDa+2PWJCUdf/zsbrYqz+T0OW3Z918RThEj5ApvDCZlNyopjSbRky9+/9+TpPCLh7/btcqTxBbkufNoTI4J+USlnYpz/74RO2g32TiYl2TayY1ByoiL0hUUNPm0ouzUPPVlpzn4mJmwaVr/gHrVlJJFMmJFdO3PumQ/lj+vSOI09p5HH1IXlZVPIBuPOw2Nkmh7rbcJdrIJV5Oy2il+IumBd9rwTELp3a5+ZDBryEFJWoJgr89Obfw/hqlSd0Ks8diDIJyFw6JjY10VCoWhg6IL+zFuIhl3am080YrjuIRZZN5U44XGgkWYEkUd0Zddp52MaBj78+CzQK+dWgRLWmHm1p4E/aB9AvQf//mtDsMwHuNidfMUX0f2/R/DVP16hwm9wefB0mfSgkYsy/oZDZ0a9/niJ5OBm66bpPe6d3sGEOcQw6XWyHEl004uXTeaGDi1KvWPl/9oQCT3xDie0r7vXFjWuVeEKUoUFmJEsEz7fLDP8rJPUu+vdn9HHNJ8v0+rlYr/nk1cq3YNl7YDjvJ5pLclG2onq1oHyYB9bZ6+ddCH1GPDQSUiUAG1U7Rez2jroVTa6S8PS9ppf5R+vj6vneRTL2ftxL1/eXXIVqHGCFKGrel4JGbDU5VgHgjHpf3lQVSNuX+CsvP2TqVz+MD858c3WUkz9wQrQ4JqxCQbZqPxP1PEmXMkbq2b6ayWWDtZUXZannyJ5D+LM6J/rONk2qPX562djD31EZ9Ocvs7nRovcVNAuu2Gv0G6noNRxeRdD+pIhpzcu62VeOgwCmrhRNqa9mRs8KfjwmkwZOFhWGezK5qydvYhC4gH77fs14+il0Bfdp12MlKtttBOLZeJnXlxH3NfPH78+HFWnvB1SfHtpU0YhnEZeljTlcuK6FOVYZy+21PC8T7u5nyyQRZN3/T0Ty6mm5t21GjIAaP38NTaacQhjTz8eC84gEyvrR14WiAXtWZjXerFd4KbsyzrPuKIltKu/s4sqxy01yQlCgsxMt0y7fPBPsvLPjX1/nBdW5Zlvaec0Yz/pq5pr11NJ7YJ+ueR/jobaifrWge0k74OcFC+BKCdKp124jjuo/rt1dRrYX+f+Dk2sufu0Fpkz6UgZWjoTOGWU2WknTT2nXOlF8lDxA6jvqKsdipI+6sWEU6ho248eVooUH/aOXslHHeyQjvR8qRuyAXxk3xJT67h8M3/PH0neBNQmtEkq8ed/l1IFg0bVuPIZL9sxp3KUDsVpmzoTeaQObeedclkt1QGCP9z8ZkpxHFVq1WSkRfu/FRvlmWbLDU1l/jv2bWJARh56uUj1X1S1JGD9k0lBeG/PlrXgfiy/44sQcva9k1VhnEZfsikLw3+CkufjqSdOC5b66DcuVO4aPMwjuOs7R0+Du1E/DsPIsuwsnb0dmZZdzMeRzgKCzEimLSkMcuyvr/w6/CMAtjyBOyzXLUTl/g7WfLUKIgMcL+LHOhEFrqdM0ykJVVtxfNIbxnlqZ3sa/P0rYM+pB4bDioRgfLXTpe+1GwLa7y/U52QIOW2eIPnK/qRH3H92HbOHs24U/n6KBeXnnwrLso+dTbcLSTIPSrR4HhdO2/twFWj8XvjCHRnZHVOUVFBdkF+TpHxHMFXoXuXfBG6+nfptCp5/xPa6vONvSuVXaXSTpq5mtaUXQjFNE9hCIvHl34la9k9Rx+TlqhMtdODtR3IdI6xxwRy1EK2LWun1OWtSJ/4p5OSGP75lfi/qz3PsKbO3OhH6efsdd5Ib8kfnuwfXpvkuNGkEy+MrVVSCotfM7Z2J6trRhwRO2fhMrd/Tc4PNp4OxnFvIvoS8fz9PuNxWFFaFHWknRNFU3Zz5O0y7iQqhuBL5o5vq5JpeltevNjeowrDuP8QZzRMIwhu+fBecAuiMSjWO2nnBX21md5CrB134jjuU+qq9sR3Rc1JJ8Rlsjr1zIi+zmSa3rYXL3Z+48Sy3uOOi2PUc6GwEH1Y/uD8dC+K+aJ86FJ+wj7Lyz61FaeOneCpUCi+3pzOfTwX6MOyLkMPSZ47VjyP9MYgq50erCT+c1ymGO34N4v4u6wn8PNndeuwr83Ttw76kHpsOKhEBMpdO+Vd+YaMKuzZI3SVxHHv7x8knu6EngDsoZ2s9hVxUF47mdkblyu7vXFN2ad211qhBwht2SMu3jMV3OQ5We2UlBCqDAnyPnFfMn2J4zKW7lzyRejyGY+kEcvFWXQkhgyatftH6gbsXXIk8bNXsnEn68suzbcxT2kIc98LokeR+VqtlkkHKnRr3IW7Nt0JovUVQR9Sl693B4aQbEg2+jCXac6ydsoI70rmyPWJEC8aen94KPGA3XKVYUaXrgdv5CtCq7JK4yuC2s91cdaJwCZkkZP/iKgn4lewZotv/ocbixoQV+RTzoiDqI6MIe6z26yQbtBKgplbHi2OguMo6ki7Fp+m7A6hnbjsQ4NdGKZKz+Dg3lUYxmdKvGDcVVp8ue+5+weTaXL1Z1wUOnp/FT3KyM+eFrgJH99mkyiBduK4nOM/EUcPzh1CHwrnKlqfenb0MHeWdfp2+fJ+TixbfapZShQWIi2ibtufnltMrZ+SBi71d9hnedmnrupe7xmgUCjcxsWok5c1Y1m2+0aD82BNEGueR3pzkNVOGRu7k9dD/XdJnghHRpCdG4Q+MK1uHXa1efrWQR9STw0HlYlAuWun4rTZm8hmSkPuCN+G5MfEkW2XfE/cNzxa7aGdeF/Vpn2UHxSM0tCn/vHeT2Qj17UzhBPkuA/XE9YrQ4Lcj94SO6bWGJMN/exlxjdfH+yzOe6C5G36y3NtQoKUYUcN43uk7EHKkO3r34qCql8mLU2IX5T4wDBCxRt8QcpBIleiEs09dfNSDniGBCk3H44VK+GCzNMBRCHv3GK0rkA2Tu24k/fRW+J39NmRR8i2XSa1k2ycHH3Z6XnylDiuKHXf2HY1vf1aDN+cJBmNIIEuziB9O7chh0QlKk7fPYBM8hJ5HiezLMgM9XkiD9CmfJTTh+TzmbKK+Bhz6rNb/HTjf5Z8WtZOny5Mr0Zc2vXfLZS4b/4a7cUwjHKcYIMRXQ/eWbyN1cfU1ZrNaU36KC+KHkGEmdRBnCGDWj/IVTqteyAaQ1Mn7184d+7c1fGizsK7v+e2I/6zffvtSDXcXAyRGR3J1KZ29YjztxHCkn9M2/AN2cy0VbApt+fZkf1IRfeLlJ0rKF9H9GW3XjsVRA8h4LttzTSCoj+h9VFutN5J/7vRQUHceC+GYd3cnBmm+q8JRm9ZBBfIkOe4rD0DiA8I54bDws7cf5FXkPOc7H7WunFjMotS2D8jfpBZ1qlr6EOxhdw9uHj+/PlrxRaiyUHB4eGkjr7ebrbs0v2dyGXFaSGdiafyGhNiBbd561PnCo7/5Muyrl5ebixbe5YFSvIWIgBKDlXRo4gLkwZGPgfF4fL2fU/6vmbEvzispW+wz/KyT75W/gtpR2btLYiP6Efc9BvPIbbiecTHyRUdHk3Mo1Mo78FP/4vu4NPFGcTLqNfASOF98c3RH33JnIuJpwy3Xutbh71snr510IcknjwVCoXTkAPC/q2UFr5XQALlrp24jzcSwkgneOOO+SnPMwrVuXmZcX9H1CFd7ZDfnwleC9OrF3E9WJqzxxXGn1ql3Rt3fVpWZmGRSvUqgd8bd/hdwUQJK1JXn40ne866bdsfkpb1QhdnVCuy4GfFuPsmOtOcDbWT+tZosr1ScKczd5LyCtUc2Rs362XK4iiiNNyjrgm6Arr9Yb0jDm99/DJL/aFQnZvy6J9xml1068b/ZyKjWWdbEgG2bcmT7HeG7XE/GCpJnfoz2bI2qObemIgnLzMLi/ILsm/eP/sd8V0R5PdX0ktx1ZBvcnGqdOud1gz4J+VeXuH7ovz0rPvhceEdIrfUNKOdZOPkOOqyW8GTL5s6doK7dg066zxgv0ggaYKoTv/kR+6n/n2DT9zNzH2f/yb9zsmwH1u26dCBbNskHHfiXuz+jt8bNyHtJdl5VLM3bvPmZFCjhCF1+SxOCdaIp4Dg26IOJV8M8adl7cQVXZ/fgPSzvbr8EZ2U/i4/J+NWzOLuZMIeU+fXBL3HFY7T9uCrtGvX/csZB64/zS7If/Poyl7d3rjt1pjc5+eeZkZglaaBsWl5BlsT5E+3/6Zzsx83nr3/IlddmJt5Nz5sVGOya5PflHMGSy5IWtvDg2EYz27rkgSNWxCV0aFcbRbGT6pGarP+4PCL/5EayrgXHzaqGenT1xgTY7xJGhl2mkfWIPj/LvWpbpQ2R1FH1GW3XjvpBhudOi648CzbsD1uobAOrNZOnDrh1+rELhimzh/XRK9tJOWXI89xXFHK+q99RF7CWdeAZasmS7UTp9t/063l+M3nUrUWcu9M+A/NSOOqNfW8wUL0edA6/Vd2WXQx3XTZTWknjlPFB9YiryTarb1vKJv1qXPqhFm1NR7t2QZzrhti0mePP6CwED4o+Sx+tPErUuYG8xKFtSgMoj0ma8mIu7+p8RYSN77M+Azss5zsU18ViX8QZ619hg3zIavcLhjd7K15HukjTVkZQCRBi5/jzNyTi/5d2IS8ffDtNuew9olAnlw1iVE1mCV8IljfNu1l8/StgzqkOmaMxktNgGT3CT1HHFRYAuWvnThO/WzVfv12QHq3b8u6JjwVSXV69fIkpjqRXub+BSlDBRs3vf9vDvECJwkc3PJkikBmcBx96s25I0IAACAASURBVGT15YPZEcZxLm1xMkX4EsZgNDbUTtzHe9e2+0mLo/EVsX5zcIbhdQ9J/X3agshlRmUP8tl14rx44IjP6rt9fxnXVNRRwWM4J/1s9w0SmCR1n4jY06a3eJKN81107Bqxn70g5aa9e2/H1TKnnTjZOOnLbg1PLSb10R/Jfizkra1T3z0mes/F6YdG+4v97LFs9YF79swgjqtFiohTG/cOPXtsCJ/sXoqQfG1m7BlANuL07BaSbKLzyIfSfspoJ45TJQZ3ctf2iQX/u7VfcFnwBp7XTszY8D39vQXhiPu11osTzeiZrGMjyQ5Okr+GSwxuGLIv/tmWbL0q+XNpMfOMcFgtYbokUXF4l0nS6fkcJ1ubn9Ii+vsabdzEVu+xMtFolFXDMnvf98Q2+kbQ7JZIUUeUZS+BduLSd39nXKcjDwu0sPXaiSu+9gfxVc40MbGllNDoZMlrAqvuH1o0uktjP3c3b/8W30wJu5T5KX4SkQfCcSey6duluR08javJvfXss0ILMWQgPXKQt1H4MUf0ZTetnTjuSXg34rPeb+wxQfVbnTpXfH1OA9LRbL7Esh97jsJC+EIVPdo5oDqZwdVj0xP+nOnPvKjvNWXvF2HidZfpS8yehX2Wi33q60MdN9GTZV1cXFjWdcQRE7dYa55H+lizYsb4E/sU/rFs0+Db+hCqxOVdjVuQV8dFV0RPhJK0TbvYPH3roA+pHSJjPX8+YyRZ9ZxwUDEJOIJ2Iu8P35xOPDZwz7qa65d6b1j3ZfSxdQ/fSBs5vXqxSjuRLeRexl45OmDPulrrl3qHr20bdTj4bqZ0uIA+da0hFL448s+RfrvX1iBxrgmIil6S/Fwap95kbKmdSHkePrwYGL2p8cZg4oE9NLjG1g19jp+Lfql/7OsT5jj1qxOJxwbtWVcrPNhvc9iXBw/OS0p7ZmEijTor6sLezjtWehnkmUg7keRz03ZcjOq9a23N9Us9w1c1i4ycfvXeA7FqE+SA42Tj/PTu0rVj3+1aU319cK2t4b3izse8VnPPLGgnijhJRinLbg1PUjD1vYjRATW8fJsNXn9dasW6ghelX1gf2Ke1v7ebu2/dFj1+DD6aouL+NqGdyOyAlEMLR3Zq6Ovu7ls/oP/MiOtvOWOvEpp46UNqs/EpbUsvb9KPrzt4079vhUs0dNk0fMhqJ47j8v87sXpy79a1PV1YZ8/arb6dtDLmP2n5dT34kYcLc+4c+GNQu7o+rs7utdp8NzPihqUZbIVpsYtHdqzr6UTWT+n+hNqJYHoQu3pynzb+Xq7Obr71W3Ud+vu2i08lrwBKoJ1oarPgv9gVE75p6e/t5uperW6rnj/Oj7iSabYRWedXmqqOaMpeEu3EcbnJ+2b3b1vfm+ygpfsrrXbKPqDZEVe4Cs5gZ8IjinYkDM4fF5+c4MyybNt1D/kzuk/Vw7i1gf3b1ff1cPOq2Tig+4g/d1x6JrEQ4SW5dw/8PrBDYz+loY9IoZ24/Au/kHFFp4CV94QdJitTz476noxdShSgMHv8MZWFcFxeSuT4pgSMe5ewFLPGqYtUs48zyzaWE258HmQ+YZ8CQGVkn4YU32j865H7/NebRS+EDUGseR7xVxWmxS0Z06WhYItCsXYiT4S0k2sD+7WtV83d1a1avYC+gatj06RPBG10VrYOm9s8feugD0k2Jx7nQgbfvrXBKwgeOz4dhICDaCcHoYFsgMBnRuBtwpz2xBET6+zfI3BVVBLNWEhpEOl68MOiLPRZSxO/41/7fDNxwKccfVj69tVs1su6jsxmxCY/ZG7vVZVhmC9DTOwia5ME0kI7kP5Kf9M7ItkkCftHkrmzD9E5ncNkBoi0ObFsIbn3Y8Jm9m1Eljmxbi1nxGdZfEtCYsyLGqYJPO64hVde9odQLinAPssFu9WJ2srm6VsHfUi+MCmr2pJ2JLcHOh8cnxWJALRTRaot5BUEbE9AlRr161c1ncnLdffA07aPXxSjudEPUaDK+qUoL/3qpmH+LMt6jRbO6JIvb5nWkXx2ShHiaVinKgxT5est9P7CqVP7WPDq/ulFPX0VCoVL941G+yFQx1P+AZ+Fd3ViWade26gpWbCQa/PJghfWya/DlN13qBT7zcVNSZ/PyCdb+YOxew5gn3ZHbLMEbGLz9K2DPqSuhB9ixpHZ+25jj31+ryBsVskOGxG0k8NWDTIGAmVHQPXofMTSqcPX/GPnJD9P7ZS1rZdh3hfr1GDycdMLHy3DL6s6spyL0v16f2VLsq9W792lX0ejzciT8E5Gq5JYz86rblbkgc3U1W3I7jj9Iq2kZNpCkreN/2nh1lOpObLjTbq6zY8aRtx71v3zSukquwJeDfusaJVWWpunbx30IXUMH65qS2773TY8rWhQkV95AtBO8owQAgRAwEYEPk/tdGU2cb7m7ObbsOPgmdv+eSFwrmIjrhUjmuIbCxszDOM8+MA7W2VYoJ1YJ6W3f8tvJgQfSzW9qMJWado5nuKbi5uR19XDomxGybocazeLcx4VXaExWldmTWjYZwmg4RIzBD6cGE+WLNb83d4vJM2kj9N2JQDtZFe8iBwEQAAEQAAEQAAEQAAEQKCSEIB2qiQViWKAAAiAAAiAAAiAAAiAAAjYlQC0k13xInIQAAEQAAEQAAEQAAEQAIFKQgDaqZJUJIoBAiAAAiAAAiAAAiAAAiBgVwLQTnbFi8hBAARAAARAAARAAARAAAQqCQFop0pSkSgGCIAACIAACIAACIAACICAXQlAO9kVLyIHARAAARAAARAAARAAARCoJASgnSpJRaIYIAACIAACIAACIAACIAACdiUA7WRXvIgcBEAABEAABEAABEAABECgkhCAdqokFYligAAIgAAIgAAIgAAIgAAI2JUAtJNd8SJyEAABEAABEAABEAABEACBSkIA2qmSVCSKAQIgAAIgAAIgAAIgAAIgYFcC0E52xYvIQQAEQAAEQAAEQAAEQAAEKgkBaKdKUpEoBgiAAAiAAAiAAAiAAAiAgF0JQDvZFS8iBwEQAAEQAAEQAAEQAAEQqCQEoJ0qSUWiGJWCQHFBQWGlKAgKYScCRhaiLij4ZKe0EC0IOAKBUtg8WocjVCDyAAKVjgC0U6WrUhSoIhJQZ17ZPX9k53p+gacrYvaRZ7sTMGch1xY0qd1uyG9bL6UX2D0PSAAEypJA6W0eraMs6wtpgcBnQwDa6bOpahTUUQnk3Y2c2MpDofnznBrvqNlEvsqNgCUL+XdhfZZVKBSssumYLTfelVsekTAI2JKAbWwercOWdYK4QAAEdASgnRzAFApuRa1atWpV1C2ZF8e5944ET+jVqranq5OzR81m3X9ctP92drH5AhQ+jl/1Y7cW/p5OjP5v0D6ViQvoQ5q4uFSnaMteqkTK9OKC24fWrFmz5tBtmdrUZUqVtLaHD+n7KhsPWX7k2nO6q2xQospHnh6KfB2lh39FKmXEIWlzydo7yJ1lWf+fL5RVTclZiDrr9onQ8a09WJZlPTovuZpLz8GRQ8I+zd5DCmPGuSsUilbLkk1UYFpYB5ZlnfrvfWviR7OnLs7w1ihw7Rsc7f/fbs80G97OP9jO5itp67Azf0QPAiBgmQC0k2U+ZfLr2929ibbpvdvS0+7tmV9buuglEH/g1GjSiSzTmcw++3NdPpjh05R2og9pOqXSnKUqe2kSKPNr30b2I73YfpGWapPPVe65qfVJH92397qkMu7zVj7yPFT5T/k6MqOdPiQtaMayrHPX8DT5VGwSgtZCClIjhtcmhldrQuwbm6RczpHAPs3fQ15G9CMjjb22Gd/7cw4OdWJZ9st1j6yqP4fSTra3+UrXOqyqXAQGARCwNQFoJ1sTLUF8FL2E/PhAP4ZhqvgPWH3y3vOcgrys1AsbRzRiGYbxGv2XqYk6BVFDqzIM02DysSeqDxYzRR/SYjQl+5Gi7CWLuNyuku+X67P26ebi5qQP1GjaRVNVqA9nl4PKR54ek3wdmdZObw6N8GJZtvrEU3n0iZUmpFUWUnB9YQDpN9efdVldmkQd41rYp3ntxKWuacOyrHJMzHtJZX06N81PoVA0mJco+cGar6oDQ8gLnXIad7KTzVeu1mFNdSIsCICAzQlAO9kcqfURyvcS1DFjXRmGqRV4RjiFqDBxbkOGYaoOPJhjnOiDFa3JbxNPWJjUp72KPqRxKqU+I1/2UidRxhHI98v5DBWen1qDZVmv4VEv+VNl+Fn5yNPDk68jU9rp073g1mQ6VIfVKbKNij4vlkJaayG5p3+qSSxqXEwZD2JaKkQJf4N9WtBOxVdm+7MsW/P3fySWmBLckmVZzymnSqOey1U72c/mK1PrKGGjwmUgAAK2IeAg2qnwydnwXwZ1bOjr7uSk9Kkb0HfyiphUoUzgOO7+spYMw/xv0ilJyS/PJCMyteYKX7SdmvQ/hmFaLrtflH529biuTWq6uyh9G3f9MTjukcQFNH1IkqzqQdzqyX0C6ni7Orv51mvTJ3BN7MN8SX7S13cmU+SGRqne3d47q3+but6url5123//256kbEHQWwuJ7rH012Hdf3x4nbwZc1T8RCw+N8WdYZg6C/7lAxo+zeEyhOCPqEIWZVwKnzawXX0fJVuFqeLsU69Vt5ELDt3JNuUeWZaSVWUn2bQmdb5Ylj4NPeO8+0cWDu/UpIanu0+99t/P3i2qI47jUleQF7wuRt7vrsyuxbJs3fnXtMncXtyUvKm18Ncp1GiWV+LcOmSJytg46ctjSdZleXIcZw+r4zi61nFvOZHpTMfQJ5KMc5zq6BiN6J952fLYp9GFuhP5D48u/aFrk+oe7j71WveZvjXxdfHZQLLeqM2aVMk1qofH1wb2b9/Az8PNq2ajdv2nrYv7T9Q2raojg4Xok3l3bGw1lmWrjYkRtmPdz7Kpcykr25Ixxi7rn+pj5A9Ux8aS1Up1Z1+RUKK1ED4i7uP56TUUCkW1aWdNNUx9MNsewD7L3j7VMeOJd5l2q++L6vLVrt5E3Q88IDHRwuf/7Jk/umf7ZnV83Ny8ajXtNPiXsLNPJc9CfUyy2onyrmiIUK5t6kNynB1tnqp1qK6H9G/k5eJRt1dQgoSiIJc4BAEQ+KwJOIJ2yrsS3NnDWES4tJgZL3wfb66Lb0E7LYiY14KIKMGf3+D9GcJXdbreIUVILvvinLZKQVTaQ/eAPy6JbrF8L3bdzkE+4tAuAUGJekFolX64Oa8ewzDeMxMkxqqNxOOXi5LzFqRmiUJmRA+rKS6L9lvVehPjJFPuaShZVXaOsyJ149KZPMP3jMP2jqwt0jyse9slhjqyr3Z6saM36Uz3jbC4PIWGp0A72dLq9NpJrnU829i5CsMwLVamSGirokcQ6dRg3jVhm5MEMvv1w8MtvX2FcpRlPbqGhU4xoZ2yL83r4Gm02N27/RxB96d02qn44eoOTgqFonXwbSNZQpM6x6Vv/orMqGst6e5ynOrwaNIPbrLguoQSnYWI+BUcHk2MytrlLqI4rPoC+zRYaBnaJ/dqV39S0f1Edw/1iUlEhHcOE+nzvMQlnb0NueSP2Go9w5NNyifbaie61sEbnV1tnqJ1vInoR5o5Yct2Cjd+G8TnE58gAAKfM4Hy107vE2b6k464d5dZ+xIfvVIVvHt+5/iyfppz1X6IM6wDsV47NWrbse2ITRcfZKkKcp4nxy39lgxQMb7TzgseGFrtRBEy7/RkX4Zh2HqD1566l5GTn/fi/vmNIxs7MwxTY+IJwRQZnXZq07pLQOCexMdvVXlZKfFr+9UmvcuqHUMf68ztk7pApftL3/YNydg329L5M5rP90X6rtSNucTtgznt5D79gjbSD4dHajWN+f91viLoQ3IcV3z599ok8w1H77z6NEf9iSsuyku/HjG+CdGltWdd+WhoQXSUrCq7Fakb8iFzpNNObQO6d5p58Pqz7HzV68dX9v3c3lOhUDh1WKMf76MedxKWaAd59cv23mG2NnWZu7eiDXGvN+mEhczS8TRoJ5taHa+d5FvH6139iC/HRgtv6E2WFConeghxb9Ik2JQ/MAul1v706sAQN+KXof7gdadTMnPz36XfOraoR7smTZTScae8+EAyVc210bCQ0ymatpl6YfOYZm4KhcJ/8km+bVpVR7y65v3s5Z2cXJ1Mhhpy6LU043Spcxz3es8ApUKhaLr4ppjS4eFEDTZfflcaM42FSK/5e7Yfy7L15lyX/mCX77DPcrJPjnuwNoCMWk84KZiLcH1BY4VC0WiBqPKTl7dWKBSuzcZuPZ/yIrdQ/T77+d3TKwf4k5M9t6SbsAtbaifq1qHLh31tXr51vNrZR6+dOobzT2sTkHAKBEDgMyZQ7tpJHTuOjOVUG3VE9PZddXEq6a6zww/xPZ8SzNljGsxJFDxYuFe7+5OunP+fVw01rtVO8iFz939PlEKTuaIYPySvaF2VYdg+e17po9RpJ6eu4Y8EXaTcU5M0yq3Hdsk4Dcdx8jP7y1c7vdzak4ixAZGi8TUu5++w6dOnT18nGHajp8Tjki87fep8nPKfup6xW69twq7Dx4friHtf0etGa2encJz8Whpd/q4vaKRQKGrN/tt8ful52sPqeO0k3zq43COjSDMWC+nsA4OJogpYJdCi5ssq/UV1cKizQqGo/8sF4cy7l4dG+JA6Es7Zyz041EWhUDSff03Y2j/cXdXWmWVd++81tE0+Dfk6kminJ+u7kiSazr8mmVXHcVaknvvXD55E2Px2VfC6ITtqGBGD7dcYzenkKCyEL5H+83ZwU5ZlfaZd0p+x4wHss7zsk+O4q7+RKb91BV4hiNGyrNfU+CJBnRc9iI+IiIiITdY/STU/Zu38hrSj/nvFN3XNbzbUTla0Dm2e7WvzFK0j5+rK3g08Xdz9e8w7J+qTCJjiEARA4DMnUO7aSbuSp8qIaGEHieO4D4nh43744Yd5MRl8DVk/7uT5s6QDcX9VABEBIw8bOkBa7SQf8ursGgzD1JwjXFVFcpYS3JxhGLdp5/ls8itPBKuVND+p/xpO/N7VX5ykD8kfyOsHSu3ER0g+zeEShtEey4Z8HzWUDJr13imcQmkcD3mcU1PiL5cvO33qfJzyn7qe8VfSORnaVUzVBHMj7aidrs1vKKed6HnqtJNNrY7XTvKtg+MKz0wiM1R9fj6n1y/ZkQOIdOoqhSxfPZoQ2lXvLhNi9RFqTmfv+06qnRJ/J+vm6wg6kdokUpa1Il3JX3SjsoJ0qbUTP79JM4fHrV/kC0EkukNrUi88G0hGr6pPP68vVPa+78lgVPeNomlW2rgpLMQoP9reofc0E9N4jcKW+gTss7zsk+M43ZKnzmG86M4/MsKVZZ0HR5lwHWRc1ebWDZJlvXJ+9ujvita0Dk0e7WvzZdo6jJnjDAiAQCUhUO7aydxKHmO+5rr45tc7tQiWrL/I1A6gCPc40mon+ZDxE0k/sNOGZ5KMvdvVj8ixIQf1C5l0vVjBGe0lpvKp/UVeP5SvduKebu5BvKH7dJyyfOuBmHNX76Rl5QlfbeqZ0FPiL5EvO33qfJzyn5JRBf0F2j6Ba2C85Iysrwh9eCvGnSh6CfQ87WF1vHaSbx0cx33857c6DMN4jIvV7Rn7OrLv/xim6tc7TOgNAS6zh0kLGrEs62c0LGfc54ufTAZuum4SjiGSaN/tGUAWsw2P0rdNPrGSaSeXrhtNzOGxKvWPl/9ooFAofCbG8ZT2fefCss69IkxRorAQvkT6zzLtHcI+y8s+SX2/2v2dQqFw/n6fVisV/z2buO3sGi5tB9zHzIRN0/oH1KumdBKvCWTZFivu6U1Hf2BD7WRV6yAZsK/Nl2nr0PPEAQiAQGUjUO7ayZwqMAZtvXZquUzshIj7mPvi8ePHj7PyDJPptNpJPuSp8RKnE+IlRYN0zy/DypOh0h5bBdZO3PvkTf1rkbEnw59T9db9AsMuZQlmH3EcPSW+fim0E3XqfJzyn5a1k1Ap0b9h5VOV75frQlL0Euh56rSTTa2O107yrYOUqPj20iYMw7gMPazpymVF9KnKME7f7aHZIphnJ/y8Ob8hpXY6/ZOLyOGHcLBIoVAMOWD0Hl6+jsQW8vFecABZBVE78LSRDrMu9eI7wc1ZlnUfcURLaVd/Z5ZVDtprkhKFhQiJaY7LtHcI+6TRTtZZCKlFefvU1PXDdW1ZlvWeckYzjyJ1TXvtajqxTRRnRP9Yx8l0A7G/drK67Pa1+TJtHeJ6wDcQAIFKRODz0k4mKs6MdjIKWb69BHMKU+uwTu8rQphrc1JTGEZ7TBfyY+6jy0e3r108c9KIvl1a1fUiw3AMU7Xuz8Itp+gp8dmg0U5kVIMmdT5O+U9xz9gQ3lgpGZ/Rhpb4KDdEQdvv4bh/F5KF3TUEEwQFsWgP6XmWqXYyyqf2xKN1HcguAt+RxX9Z276pyjAuww8ZnL2YucrcaUfSThyXrXVQ7twpPM3w4kWTdWt7h49DOxGv94PIMqysHb2dWdZ9VLRpShQWYkQvaUljlmV9f5G65DQKaIsTsM9y1U5c4u9kyVOjIDIP/F3kQCey0O2cYUI6qeKC+Em+RDg1HL75n6fv9FNFOU47fmvvcSdrWwfNXdHIcultnj6kUSI4AQIgAAJ6AuWunejn7KUub0V6Zj+d1Gdee/DPr8T/Xe15up12NCdpFZHZN+uSNDhOOzul80aj+RBGIe3RizVHqax8lBsVkivOf3x8etMqDFO121b9kjQrKPExUmonPrju03TqkkAWvlrWTsI5ew9WEm9WLlOMdhWbRTy71RN7tNKkSPnOmDjK6kCm3Iw9Jhq6E+W6fK2OvnXoMp2549uqZJrelhcvtveowjDuP8QZDdOIymfpy73gFoQ8xXon7bygrzbLt00+Pfk6MrKQT6mr2hPfFTUnnRCXyerUMyP6OpNpettevNj5jRPLeo87Lo6RzyWNhejD8gfnp3uxLNt4ofGySj6EDT9hn+Vln9pKVMdOIK5Bv96czn08F+jDsi5DD+WJ6/fSr8S3iufoY5LzpdJO9HdFq1sHxV1RXECO4+htnj6kUSI4AQIgAAJ6AuWunXS+IoYfkviKKLoSNmbkyJF/HtV3iDLCu5KRjj4RYrdZ7w9rHBm0XCWcn2d77aRdFU3jbdke2snM3rhc2e2Nq7cYwcGTkC8ZhnEX+Mmgp8RHUzLtRK42Tp2PU/5T1zM28hVxWaOIhL4iMjZ2J29t+++SWN2REWSvHqG3Nz5V+X65LuS7A0PILiKSzVj4aDSf9DztYXVWaycu+9BgF4ap0jM4uHcVhvGZEi94zy0qGMWX3P2DyTS5+jMu6pYGaa55FT3KyM+edj26CR/fZlORryMj7cRxOcd/Io4enDuEPhQOPVmfenb0MHeWdfp2+fJ+TixbfapZShQWIi2ibtufnltMrZ+SBi71d9hnedmnrupe7xmgUCjcxsWok5c1Y1m2+0bDiyxNkILoUeQm02qZZOkvp/O5UrJxJ/q7otWtw642X7ato9TNCxGAAAg4KoFy1068j/KRh0X+QFXnA2tpfZTrX5d9ujC9GnFp13+30Mv3m79GezEMoxwn3OaCs7120nrjrdJp3QPRKIE6ef/CuXPnro43PLKs78UWRA8hqrDb1kxzZqKO+ZHsMVorUDhBjitMnNuQzJsbeNBoQYdN/exdm1vfxcXFd/pZ8WwQ7s5issCF/emkvitJT4kvqXzZ6VPn4+S4otR9Y9vV9PZrMXxz0nvDaf2Rrmfs9q3YR/mDte2lPso/XZxRQ6FQeA2MFFnd0R99ydvciaeMxUHB4eEkkq+3m61NPhspq4gfOKc+u8W6jP+Z4zh6nvawOuu1E1cQN96LYVg3N2eGqf5rgkmHIrryydURl7VnAPEB4dxwWNiZ+y/yCnKe345Z0rN148Zk+0+haiV+kFnWqWvoQ3HbvHtw8fz589cK2iaPVr6OTGgnrjgtpDPxVF5jQqzA37P1qXMFx3/yZVlXLy83lq09ywIleQvhS6T7VEWPIrtaNTDyOSgOl7fve/JGgG2zIlX8g5XfYJ/lZZ98Rf0X0o7M2lsQH9GPuOlfeov/gf+8OIO8a3Abckjki7w4ffcAb3KbMqmdig6PJubRKZT34MdHxn/S3xWtbx32snniP5CudRD/nGSjvyEH9J0PvuD4BAEQAAFCoNy1E1eQ8CvZyUm3N+7r/Pc5z++cWN5Pc85HuDcuV3R9fgMS0qvLH9FJ6e/yczJuxSzuTibsMXV+TRDsd2tNn49aZel2gXRu9uPGs/df5KoLczPvxoeNakwc0PlNOWfooVvfi+W0U++cOi648CzbsD1uoUCqqOKnkIJW8R+4+uS9zJwCVdaDC5tGNCKJe446Ymq1BN0qJmIDsiFzo4aSfbGcA6ZF38zIVReTvXGzkmPndXMnyq3H9ueGtkRNSX+JbNmtSJ2PVB07wV3rMIB1HrBf1GnQBiE9Y5Z1+vLLnp1nRv37LLsg/83jq/t1e+N+uU7YZSj6d2ET0snw7TbnsNbqSA++Jnm4Npgltjpd8rcXkx12lF0WXUw3U5u6gMUpwRrxFBB8W9Tp54vBcRw1T7tYnRXvIPg8qxN+rU5aJMPU+ePaJ/6siU/ZOuK4opT1X/sIHT+wrGvAslWTpdqJ0+2/6dZy/OZzqdq2ee9M+A/NXFmWrTX1vKFt6vMhW0emtBPHqeIDaxHDabf2vqFs1qfOqRNm1dZ4PGMbzLluiEmfPf6AwkL4oOSz+NHGr0iZG8xLFNw7hCF0x2QtGXH3NzXeQuImrjM6BfssJ/vU10TiH3VZlu0zbJgPWeV2wehGojr9kx+pa/++wSfuZua+z3+Tfudk2I8t23ToUM2cduJSVgYQ8dDi57i0PJOWRH9XtLp12MvmqVuHOmaMxvdMwErpWJ0eOg5AAAQ+cwLlr504Lu/K0s4e2v6W8H/nptNPCd/1k/dGicGdSH9doIPFHwAAIABJREFU/OfWfsFlwXtgUqPUisiKkFz2xT/bkg1AJX8uLWaeEQ4clKAXy6Xv/s64XCMPC/Xgm9PTmzlLkmYYtsGE2Bf6YR+hMcsqIn1g+ZDq5NDObkZpkxPOAYuuimdbUlLSpy5fdmtS10arPvoj2TOHvFl36rvntSEt/kjXM56wYe9ATcdC3wFi3dsuSZSsPlElLu/qLfbtS0aiOi66IrE6feyRg4zDjzkirE1d0Iw9A8hmqZ7dQpJNdPA1gSh52sfq6NsRX3au+NofxFc508TERmb6QGR3Grk60gRW3T+0aHSXxn7ubt7+Lb6ZEnYp81P8JCIPhONOHMdlX5rbwdOojlj31rPPCtumIQPpMnVkWjtx3JPwbq4KhcJv7DHBWK/VqXPF1+c0ID3a5ktk1iVRWAhfqKJHOwdUJzO4emx6wp8z/ZkX9b2GVb8I2R3bTEcgOAv7LBf71NeAOm6iJ8u6uLiwrOuII5JbFwlVnH5otL/Yzx7LVh+4Z88MP7PaicuKGeNP7FP4x7JNg2/r06W/K1rdOuxi8/StQzvwxXr+fMZIiOpLjwMQAIHPm4AjaCeO4wofnw3/ZdCXDXzdnFgX7zqte/+07GiKyZ5p/n8nVk/u3bq2pwvr7Fm71beTVsb8Z/zAoO/z0YckhqJ6ELt6cp82/l6uzm6+9Vt1Hfr7totPxdqB3xvXCm/RJObc5H2z+7et7611X6fRKWLtxHFczp1DS8f1bFnTw4V1dq/etNuYBZFJb00KJ5rRJL3hy2snTcljlk3s3drfy4X4aq/q7FGzeY8fFkfdMVVJNJT0qVOVXfWAPnUSs/pexOiAGl6+zQavv25sHRyn6xmPOVKYkxw1Z8iXDat7uHnXbTdo9q6bJp1F56edXBvYr229au6ubtXqBfQNXB2bZipevlS5dw/8PrBDYz+lof9hUjtxn9K29PImGq/u4E3/mqtLGp4l0U7yVmdd69CUPvuAZkdc8fpDnovwU66OhGEFx8UnJzizLNt23UPBSXKoehi3NrB/u/q+Hm5eNRsHdB/x545LzyRtU3iJ5Toyp524/Au/EN9mTgEr7wm7Vlamnh31PZmPKFGAwuzxx1QWwnF5KZHjmxIw7l3CUixNlSTx3lxM3L+zjeWEG58HmU/YpwBQGdmnIcU3Gv965B7y9WYz04SL0i+sD+zT2t/bzd23bosePwYfTVFxf1vSThxXmBa3ZEyXhoItocTaieM4+ruila3D5jZvTetQx4xzIa3jWxu8WDDUEo5AAAQqFQEH0U6ViikK4/AEdD3jkVIPJeWR8bcJc9oTZ1mss3+PwFVRSaJ1f+WRoVKlmbm9V1WGYb4MMbGLbKki5i9OC+1Aejb9Te+IxIdy8M/MnX2IzukcJjNApC2GZQvJvR8TNrNvI7LMiXVrOSM+y9zbFD2TvKhhmsDjjhuv1tMHqqQHsM+KUbG2snnrW0fKqrakdZSRp8qKURvIJQiAgIQAtJMECL5+DgTMjiqUT+FVqVG/flXTmQxSuQeeLp882CbVp2GdqjBMla+36N1j2iZeEsvHglf3Ty/q6atQKFy6b3xmu4jLPKZn4V2dWNapl8hTicVcWLCQa/PJghfWya/DlN0mh4GNIr65uCnpHRr5ZDMKWPlOwD4rTp3axOatbh0fYsaR+d5uY499fi8WKo5tIKcgUN4EoJ3KuwaQfjkQcDDtpCGgenQ+YunU4Wv+KQcetkry/sqWZA+23rtLv45Gm6Un4Z2MVzF5dl5108JkPFsVxm7xpK5uQ3au6hdpJSXTFpK8bfxPC7eeSs2RHW/SFSg/ahhx/l73zyt2K6GjRgz7dNSaMZev0tq81a3j4aq25B1Wtw1PzWUJ50EABEAA2gk28BkScETtVPGrofjGwsbEf8jgA6YcP5aofALtxDopvf1bfjMh+FiqpaVmJUqmLC8qvrm4GXmxPSzKZpSsy/6dIOIH0nlUdIXGaF2ZNaFhnyWA9pld8uHEeLIQsebvFfkV1mdWZyguCJQDAWincoCOJEEABEAABEAABEAABEAABCocAWinCldlyDAIgAAIgAAIgAAIgAAIgEA5EIB2KgfoSBIEQAAEQAAEQAAEQAAEQKDCEYB2qnBVhgyDAAiAAAiAAAiAAAiAAAiUAwFop3KAjiRBAARAAARAAARAAARAAAQqHAFopwpXZcgwCIAACIAACIAACIAACIBAORAwq53KIS9IEgRAAARAAARAAARAAARAAAQclQC0k6PWDPIFAiAAAiAAAiAAAiAAAiDgSASgnRypNpAXEAABEAABEAABEAABEAABRyUA7eSoNYN8gQAIgAAIgAAIgAAIgAAIOBIBaCdHqg3kBQRAAARAAARAAARAAARAwFEJQDs5as0gXyAAAiAAAiAAAiAAAiAAAo5EANrJkWoDeQEBEAABEAABEAABEAABEHBUAtBOjlozyBcIgAAIgAAIgAAIgAAIgIAjEYB2cqTaQF5AAARAAARAAARAAARAAAQclQC0k6PWDPIFAiAAAiAAAiAAAiAAAiDgSASgnRypNpAXEAABEAABEAABEAABEAABRyVglXZSHRjCOrl61WjY/rvAlTEP8hy1UMgXCIAACIAACIAACIAACIAACNiYgNXaScH/sR4dV9wssHF2EB0IgAAIgAAIgAAIgAAIgAAIOCQBq7QTKUGxOjcj6fD09kqFQuE+8hDGnhyyWpEpEAABEAABEAABEAABEAABGxOwWjtp08+LGqZQKNhuG9JtnB9EBwIgAAIgAAIgAAIgAAIgAAKOSKCE2un5tl4KhcJ5VHShIxYKeQIBEAABEAABEAABEAABEAABGxMooXZKmFVLoVA0W5Jk4+wgOhAAARAAARAAARAAARAAARBwSAIl006vd/ZhFQrFsCgsd3LIWkWmQAAEQAAEQAAEQAAEQAAEbE2gZNrp2p91WZatO/+arbOD+EAABEAABEAABEAABEAABEDAIQmUTDslTK/GsmyTpbccskzIFAiAAAiAAAiAAAiAAAiAAAjYmkDJtFNOzLjqCoWiyU8HbmeqioptnSnEBwIgAAIgAAIgAAIgAAIgAAIORqBk2onj8u8fWji6XXUnfqdc8llr9t8OVjpkBwRAAARAAARAAARAAARAAARsQ6Ck2innesjQpl4s8Rih/4N2sk2dIBYQAAEQAAEQAAEQAAEQAAHHI1Ay7fQ+fmpNhUJRb0j4/6W9xKQ9x6tW5AgEQAAEQAAEQAAEQAAEQMDGBEqmnf7v1+osyzZYdMPGuUF0IAACIAACIAACIAACIAACIOCYBEqmnRJ+8WVZtjG2xnXMSkWuQAAEQAAEQAAEQAAEQAAEbE6gZNopbU17lmVdJsYV2TxDiBAEQAAEQAAEQAAEQAAEQAAEHJBAybST+q8fXBQKRZf1jxywSMgSCIAACIAACIAACIAACIAACNicQMm0E5cU1FShUFSbft7mGUKEIAACIAACIAACIAACIAACIOCABEqonbL3DlIoFGzfiDcOWCZkCQRAAARAAARAAARAAARAAARsTaCE2ult5ECinb4KT7d1hhAfCIAACIAACIAACIAACIAACDggAau1U7E6N/36vonNnRUKRY1p5+AswgErFVkCARAAARAAARAAARAAARCwOQGrtJPqwBBWwf+xNQbtffLR5hlChCAAAiAAAiAAAiAAAiAAAiDggASs1k5Ort41G3ca8uuGSxlqBywPsgQCIAACIAACIAACIAACIAAC9iBglXayRwYQJwiAAAiAAAiAAAiAAAiAAAhUAALQThWgkpBFEAABEAABEAABEAABEACBcicA7VTuVYAMgAAIgAAIgAAIgAAIgAAIVAAC0E4VoJKQRRAAARAAARAAARAAARAAgXInAO1U7lWADIAACIAACIAACIAACIAACFQAAtBOFaCSkEUQAAEQAAEQAAEQAAEQAIFyJwDtVO5VgAyAAAiAAAiAAAiAAAiAAAhUAAJMfmEx/oEACIAACIAACIAACIAACIAACFgmAO0E6QgCIAACIAACIAACIAACIAAC8gSgneQZWVaf+BUEQAAEQAAEQAAEQAAEQOBzIADtBO0EAiAAAiAAAiAAAiAAAiAAAvIEoJ3kGX0OGhplBAEQAAEQAAEQAAEQAAEQsEwA2gnaCQRAAARAAARAAARAAARAAATkCUA7yTOyrD7xKwiAAAiAAAiAAAiAAAiAwOdAANoJ2gkEQAAEQAAEQAAEQAAEQAAE5AlAO8kz+hw0NMoIAiAAAiAAAiAAAiAAAiBgmQC0E7QTCIAACIAACIAACIAACIAACMgTgHaSZ2RZfeJXEAABEAABEAABEAABEACBz4EAtBO0EwiAAAiAAAiAAAiAAAiAAAjIE4B2kmf0OWholBEEQAAEQAAEQAAEQAAEQMAyAWgnaCcQAAEQAAEQAAEQAAEQAAEQkCcA7STPyLL6xK8gAAIgAAIgAAIgAAIgAAKfAwFoJ2gnEAABEAABEAABEAABEAABEJAnAO0kz+hz0NAoIwiAAAiAAAiAAAiAAAiAgGUC0E7QTiAAAiAAAiAAAiAAAiAAAiAgTwDaSZ6RZfWJX0EABEAABEAABEAABEAABD4HAtBO0E4gAAIgAAIgAAIgAAIgAAIgIE8A2kme0eegoVFGEAABEAABEAABEAABEAABywSgnaCdQAAEQAAEQAAEQAAEQAAEQECeALSTPCPL6hO/ggAIgAAIgAAIgAAIgAAIfA4EoJ2gnUAABEAABEAABEAABEAABEBAngC0kzyjz0FDo4wgAAIgAAIgAAIgAAIgAAKWCUA7QTuBAAiAAAiAAAiAAAiAAAiAgDwBaCd5RpbVJ34FARAAARAAARAAARAAARD4HAhAO0E7gQAIgAAIgAAIgAAIgAAIgIA8AWgneUafg4ZGGUEABEAABEAABEAABEAABCwTgHaCdgIBEAABEAABEAABEAABEAABeQLQTvKMLKtP/AoCIAACIAACIAACIAACIPA5EIB2gnYCARAAARAAARAAARAAARAAAXkC0E7yjD4HDY0yggAIgAAIgAAIgAAIgAAIWCYA7QTtBAIgAAIgAAIgAAIgAAIgAALyBKCd5BlZVp/4FQRAAARAAARAAARAAARA4HMgAO0E7QQCIAACIAACIAACIAACIAAC8gSgneQZfQ4aGmUEARAAARAAARAAARAAARCwTADaCdoJBEAABEAABEAABEAABEAABOQJQDvJM7KsPvErCIAACIAACIAACIAACIDA50AA2gnaCQRAAARAAARAAARAAARAAATkCTAc/kAABEAABEAABEAABEAABEAABOQIQDvJEcLvIAACIAACIAACIAACIAACIMBx0E6wAhAAARAAARAAARAAARAAARCQJwDtJM8IIUAABEAABEAABEAABEAABEAA2gk2AAIgAAIgAAIgAAIgAAIgAALyBKCd5BkhBAiAAAiAAAiAAAiAAAiAAAhAO8EGQAAEQAAEQAAEQAAEQAAEQECeALSTPCOEAAEQAAEQAAEQAAEQAAEQAAFoJ9gACIAACIAACIAACIAACIAACMgTgHaSZ4QQIAACIAACIAACIAACIAACIADtBBsAARBwBALFBQWFjpAP5AEEQMD+BIzau7qg4JP9k0UKIGBvArBkexN2gPihnRygEpAFEPicCagzr+yeP7JzPb/A058zBpQdBD4LAuba+7UFTWq3G/Lb1kvpBZ8FBxSyshKAJVfWmhWUq9Jrp48vth9bXzN8ZYfjSY+KBQXHIQg4AoHP3T7z7kZObOWh0Px5To13hCpBHkDAAQio72wd2rSap1+bsVGPKs9wjKX2/u/C+iyrUChYZdMxW268c4A6QBZAoCQEYMkloVbBrqkE2unRMZ+QIGXExRST6F+dDwhZ8kXoki9CI7bmmgxhn5PqrGOX//pu97qa4cHeG9a2jTocfPdFtoWkPmSfvXr4213raoZpc7vki9Cg4XfVJq6gD2ni4lKdKsi6FXI1ISQls7SvBT8lj9VVir6wkoMgZfQNS7gslOND9oV/44bvX18nPNgrfFXTyMjpiffTTIG0EEfZ/URnnzYjb+eCFdw+tGbNmjWHbtNZiCppbQ8f0ltSNh6y/Mi153RX2bkM4ugLbkWtWrVqVdStcslb+aYuJmHpG229Fz49t2HGkC5Na3orlZ7VG7YfMHXtyTSVOOb08K+ISYw4JDkvDmW3bzHjSOqdQtPslgJlxPeCW5CcKBSKrzenU15jKRhFHaWFdtKmaPw/23TxbUuxa387G+jOsmyLFfdMB5Vr7+qs2ydCx7f2YFmW9ei85GpZPrBN5/izOkt7t8m9dyR4Qq9WtT1dnZw9ajbr/uOi/bezLbyYLnwcv+rHbi38PZ0Y/d+gfaaaN31IW1cMbdkp04UlU4KqwMEqvXb6mLnlr7Aa4SvbxSalWWjetq3Cgoe/7w5WSuVBcKvT91+aTqjgwplQo/AmtRN9SNMpleZs9p09ypBSqBp92vbTTkXpaw+uMCbpF3nmH8dcS0NnnzYjr68C+xy8jexH+j39It9SxJ97bmp90jv07b0uyWF7SW939ybP+967aUpEUWjrgpRv6vR5par3/OurulfTDCwIu+asV/tF/yccY4B20nJX39r0fRMfD79WY/anfaSvCrMhKerIvtqJtr0XpEYMr01uI7UmxL4xWxz8YHMCVHebt2d+bemil0D8gVOjSSeyTGco++zPdflghk9T2ok+pOmUSnOWquzWJgBLtpZYRQpf6bVTOVSG+lz8amVIkNu2fSFpWZmFRXmqVwk3olqRAaWV41Pfm8hR0a3RZGQsbNqDbJXl6Rn0IU0kU9pT9urBZ51tGRKkDI9LKG0GP95IWE/U3YZtvyU/e5yvLih8d+fh+QFbySBewzNp5TJ0UNoyaa63F3mbZE4QCUX/jA/96ebi5mR+TqNpF4U9Z/5nR/m0yzOVunDlmzp1NjmKei/6d1FT0iGu1mXm/sTHr1QF79Jvxwb3rUNsoO70BEPbhHai525NSIo6EkR37c+6LMu6TzsrOCd/aGHcyar2XnB9YYATy7L1Z1122BkD8jQqWgiKu01+fKAfwzBV/AesPnnveU5BXlbqhY0jGrEMw3iN/svUjbwgamhVhmEaTD72RPXBIhH6kBajKdmPFGUvUcSw5BJhqwgXQTvZvJY+pkwKX/JF6NoZj4S3/Q/XNd1696O3TLxif3upY0iQMvSo/FJ5+pA2LxfH2asHbzPt9OiPLUu+CA0eJGacm3akLtFmR0/b4vWtHbjKR2kv8vIpWxeCvn9WeH5qDZZlvYZHmRmKtS5hu4W21zOVLsPlmzpdHkko+Xov/nt2bYVC4dF/V6Yw2pxTE2uxLOs5+aT+ZgntJARku2P5OhKmZWvtZG17zz39U01yfxgXY+J5Kcwojm1GQP5uo44Z68owTK3AM8IZd4WJcxsyDFN14MEc47w8WNGa/DbxhOysH/qQxqmU+ox82UuaBCy5pOQc/DqrtFPu5a/JPLSD0erC1PtnRu0L8w8PrrFt87Dz/yaZGk3h1K9OJh4bFBlSKzzYb3Nop8MxoQ9f50uAGOJ8n5x8csie0FrhwbW2bx1x4eZtU3Hmvb61OGZrs43B1TaGdvrr1IGs99zjGF/peqc36/dJ18+0TBA9s3W5sDL1/Ld3l8Vtb7Ep2GfDuvaHYrdnqIq1q612JzzQl0snb6JjxD314scx1UOClNvP3NSH1B+8udiBaKdj8kvlqUJ+fP70yqyjW5pvWuYZEuS2flWz3RFjE27ffW/q7iVbR0TYSGBKvm5dL1qZZE3qWgI02qkw66hm/Vit8GAfsn4sekny87eSAuVf+45kdcdmyS286NYocl6ST46TjzN90XZSL6feJc84sKbmpg2jr2fkcUV3k6I6bl5RNyJywcN3RbpKpA/JcRydfVpNXm9PFg8MfdO8+0cWDu/UpIanu0+99t/P3p0kqkeOS13RhmVZFyPvd1dmk/5u3fnXtOncXtxUtzBDOBdLeGxi9Uji3DpkUcPYOFOtXJD/widnw38Z1LGhr7uTk9KnbkDfyStiUoUPbn3YnLuHg8f3alXby9XJhczCH7Ngb9IbyShu+vrOZNrI0CjVu9t7Z/VvU9fb1dWrbvvvf9sjKvuthaQvYOmvw7r/9AlrDlQP4lZP7hNQx9vV2c23Xps+gWtiH4rvdeqk4Nb/YxjGb3ycmPP7xN8akbTqTTuvKVgJUhfnxcK3/IdHl/7QtUl1D3efeq37TN+a+LpYO1bQZk2q5DLVw+NrA/u3b+Dn4eZVs1G7/tPWxf0nKpFV9f56Zx9iJN03PhMnUxA13Em8vshgn+/u7P9tYLuGfh4evg07Dv1j7y0xN11EsvnUJ1j49NzGXwWrrb4LXBX7QGpLZtY75Sf82lihUDgHBN/RqTxDPuXakTYDOfeOLP+pT0A9Xw+lu0+dlj3HLtpvZJ+c8aw5MwuNDKlbpGRVHelBcRxHoZ3yUqIWjOzUyM/dw69R+0F/7Lv9jjs/1dPMeifa9q7Pw8fz02soFIpq085K2rA+hB0OaO4295e1ZBjmf5NOSdK/PJOMyNSamyg4f2oSafEtl90vSj+7elzXJjXdXZS+jbv+GBz3SDKFnD4kiV7+bsNx9rjX6eTNmKP6Nx2awhafm+LOMEydBf8Kyq47NIerhCGLMi6FTxvYrr6Pkq3CVHH2qdeq28gFh+5kmzISWUpW32mtSV1fQCpLVl0P6d/Iy8Wjbq+gBJO3OX10OHAQAiXSTuF3ouqJ+tNBPnvOXRM3J+592sLIZUYrT5Z3upgmGtnl1cv6W/trS+KMPHddHKf61f/12iDsuAcpN+yOSIqtWWrtRJP6h7dX+28Upx6+PTzxKPFUIdROL+KbhQQpN574P0kVaxXChuMmZqZRKSJNdBQhn6dENRCR1OY5yH3H0ZOSjgJNHVnZg7cidT0fWe2U/2DWLuP1Y0ubn7j7XB8Jx3G8LUWLzYbjPqmL1Cp1kVqotaji1Cqi/eNi9KmvX3w34SsywZLMA1SGRmzRWTN9SEfRTmF7R9YWaR7Wve2SRKGF2FE7vdjRm0zW6hthcUFD3pXgzh7GEsalxcx4yWjV69PTmjsbhWTr/3g0Q1jpfH9i3c5BPuLQLgFBhrJb+0zNvjinrVIcH8Mw7gF/XBI9BguvLWhRhWGY+jP+zyBCPiQvb0cmtdT6KV5nStamLmwCFo8/PNzS21eoaVnWo2tY6BSyvl+inbIvzevgabQ2ybv9HMGD3ap+uaGvL8niR3W+SqUqUOs7P3zI0Igh1SX22X7pNaF9chxHk09tgnlXl33lY1Qi1r317DMiWzKpnQpvLG5J5pA1nXNFP7mQz6d8O+I47nX8L63cjFJ3bTz+mMg+rddOMpSsqiNhzchpJ3VKWA8fsS359N2xc1o109qJrr0LM8AVHB5NbhFfrnskOm2/L5R3G3NiwIJ2WhAxrwURUYI/v8H7RTWv004UITnKu4097nU359VjGMZ7prQPo71lefxy0bh2zOEqUciM6GE1BRD1h1XrTYyTLLeioWTlndaK1EWlo7DkNxH9yCskYvBsp/AnosvxxTEJlEQ7bfry4Nbf7qY/e69W5b+9mhzTiUxRW9L56mtBEQvPnCZrfjx3HAhLy3peqM5Tvbx0I6r1+iVfhK4J/E/wzkXX393c8cDmGXeePSkgIc8mRjbS9P67XxP2PXL3HF6qDAnyijgS8fT1S3VRbl5m7N8RXSI315ZqJ0FGOC7h7HJlSJDFcSea1FVRR4OVIUHu2/aHpmW9UKtzcjNjEnZ22hHmZaSdmlrQTvpVPRT+EnR+9uhDknI/nbeNVEfLuOuJOe/VxVzxp8KMzH+nRBB0jc4/FQyG0dVR8ccCtVql+ZeRtIusJjqUmMGf0Zwv4sderEpdUEcy2un9iRMrlSFBHjpb0qwfuxkdQGxp2bBkQWfKrHYSpKU7pIxTo4hCVvb+53GWOv9WYkS1kKAam3Yvy1Cp8p+tOEDsoZvOROlDSjNj1j6tIy+N1ux3XZ+vbUD3TjMPXn+Wna96/fjKvp/beyoUCqcOawTjKZTa6ZO6QKX7S9/Rm6xp6b0jnT+j+XxfJBQwJGf3VrQh7vUmnTCbTY57nzDTnzwdvbvM2pf4iKyQeX7n+LJ+mnPVfogTvILJiR3nTd4F1xu89tTdDO0s/M1jmhIxpRwQKega6/oTbVp3CQjck/j4rSovKyV+bb/aRNFU7Rj6WJcbYYm2fUPy8M028yXKOz3Zl2EYlqR+LyMnP+/F/fMbRzYmqdeYeEI05agg8fcmVRimauslSdpGU/x4S3ey8tpvnGFZvHWpWwAo+enVgSFuLMs61x+87nRKZm7+u/Rbxxb1aNekiVKqnfLiA8mEKddGw0JOp2hKlHph85hmbgqFwn/ySb5EwnzK1juvNOS95+lCtmvbrf20vYlPSB3djw8ZUI/0LZy7rBf2K+jySTC8/3t2fWKZft1+O6BdbfU8+cSKAfVJZ6XGuOMCWzKhnT6krOroqlAo6v0cz5ed4zj6dsTlxE30IyO4hOc9jX0+uLh1bAvC0/P7fQL7FNfYxRneRK+ZdHBHScmqOhKmLqOdMnf1d2VZVtlywo5L/2WpCnIybscs6fll+3bVTWsnmvYuTJ4c/z2bQKs357r0B7t8p77bmBMD5rVTo7Yd247YdPEB4fQ8OW7pt2SAivGddl7QD9JqJ4qQ1Hcbe9zrbswlbh/MaSf36Re0VfPh8Ei9rDFzoPMVQR+S47jiy7/XJjfqhqN3Xn2ao/7EFRflpV+PGN+E6NLas64I+jZ0lIStQ/Y+b0XqUgOVt+RXO/votVPHcP45JI0H3x2JQEm0U3Dfm4JnDffpYeIW0qXed9nwWFMnjSAv5sMXPRcuD/x078om95Agz8M3DTJL198N/uZf4QyswniN9FJGXTO8TXh/YwgRVOGnlALGAAAbcElEQVSLngvaCKf6K3YFSd2cj3Iq7USRuq5E62Y9EQ5qqKJjiDCTjDuVp3ZSJfYjlPYdEM+Fyk3/Z/bZuNmJaQYxSl9HvMHKr7qhT52Pk3xa1k6FScM1trQgQ2RLKVc2uYUEKQ9czdBHRa+daONMX7RdMNlPfXOYJkWtx+CspAhlSJD/Oa3V04fUZ1d3YFY7CQLKkxcEljnU9brcem0Tej7++HBdB9K5FL70otROgvSo11RcX9BIoVDUmv234GLJoTp2HBnLqTbqiGhsSnVxKnmAssMP6fuxOXsHkpGbxn9eFXRGuA93l7cmmqjLJkM5df0Jp67hws3eck9N0vRmemw33G34zMjPg8/d/z15djeZmyi8M3xIXtG6KsOwffa84qPSfKr+nlWfYRinLuH/feK4l/sHe5EyjogWh+IvkU+dDyn/qTo41FmhUNT/5YJh0IvjXh4a4UPqXTjulHtwqItCoWg+XzSX4MPdVW2dWda1/17jvMrXu87qKDyP60Iqu294LFDcufGBZKIo+81OQx3R51MdN5G8Gqjxw19iW7o0rR7RiKOi9bbEGWmn4kdbepGRuRpjYgyPLYN2omhHOfsHE/LN5iaK7PPeyrZkLKvbFoN9imuRQjtJKZ02psTHKV9HfEjyaVk7ZUcOJF29ZmILeX14NBl2MuWjnKK9C1PXHN8OJs5FfKZdMvrFDifo7zbWayemwRzRveHV7v7kfYn/n1cNBdFqJ/mQ9Hcbe9zrylc7vdzakyixAZGGTgwBmPN32PTp06evEwzy01Pia0D+TkufOh+n/pPCknOuruzdwNPF3b/HvHOie5Q+Ehw4GIGSaKftG4XSiTxFTpC1+MLZaBn/396VAEVxdH8qZWWgoOQDCwql1EItrzIepWigNMar1Ji/iRo1mpQXJmg8iBpj/JJ4i64HXiAiogmeyEYQMQqC4pEYRf3ECIIHnhFRA8i9aOx/ve2dmZ6L6UVgN9pbVHWz29Ov+9fHvF8f7yW12xTsGpViuREhVPrpyZ5mi2ridGjRd+V3UUzXje6bgl1/OnFFeBZr2GEHk4XTHeafnmXueWXuRCH9SZo/XEmKP0ISN4SKsHTpmT0q7iTUC85w1d59p+dXJgF32r2L2I8hRYlx+jbin9HX4Oml83lCWD13wuWMUJx1xGcjw4hLYvTciTZPzIh4z2CwARjsaryIdcfirL2um4KbpWBHMPQpyZpD3EbcaYD8ZAC+xdSEOI9Rh9zpwuIOetwJn61/a/wBUtVHCD1PDw+cPHnyokSBNJ+f3xzsPM0VZxWMMT5hwk1PFnRwiz4hv61kOjgOyFe75RnyxkH671Qs3WcBec8Bssk2dHVwcHCbnSbLs+TELDj40ujTmNupQeaCjzY+kqXh/9WXzqfUD7MNvrD3MfUwSfEQKtz3iZw7pX/fiuO41osUNVrVHa7vf2NZXSZE6uvlVnMn+R05U8JEZ47jOq4Q24i+nDdD/DmOc5oUp+hLEV8FBgYuEfuSgjvl7R8N5NLr031Cf8MVt9SIYhzhcnoTIwvnkLHkHWBuQceE/klAihCi4E4UKPF56rcRnxLC6rkTHAXkuIbTj5LLWQgVxYzU4E4U452Ubo5jjdNrtspBMEXaV/6Cfraxnjt5zJLNTDkhfkACJsSJ8GHupJ+Sfrapi7mOkjuRraEFF5kGx3VTVhg/g8Wwj37W3KnlM6VHiX9Cf6all87nKYT12pMFqSxStwjUhDvFyu+TYNU/7FCqUNbcBDjJFnNOvqJW+b8xoNnH/iK8v3l9V/wGZ4L5WFSKuGH/MLnDpmDXyGRiscactHrfuNXrpvTStW4xKW1FPEqxJXdChTuMcDyvZUzi+oyMI3fuZxWWlkjZpqWV6NuIb1Z97kQvnc8Twuq5Ey4nyU7xsyXnh0Jf2m9U9CV5/yRl4ThtnvSMiD6lvDQ24k6KHQDMlBoGiQZLbMudtM7Wy/FDKOUrcLroG5Ij+ykvYiCoKGP2l/A/WPSJsbGylQW18zb4Gf13KpbeZ4vMCAIq2jkcpCtkIVSUMg22zlq1a/e2g4P7iF3yWZIvLaJgbmJavRjW1JsqtvqUtiJSZsApvv7Efh3Ou2j3SLiANM4oQ4/Gzp7V3EkhRWahBCFEX06tuqtgJt13Kjj0pY+jo6P7kK3kJpj5Ma0aKccRLie5s4fl5kV+AHh+bhT6p7Q8FNyJAiU+z9rkTphZtfjxHJ+5JdS0UW733Il+ttFS8dXmEMyIuhmypTjl4Q0U0scRbUr62aYu5jrbcid0L3IwWENv/P7M1VH7E0+cv5qbX0JcGBBBpkeJf0Z/nqeXzucphIw7CVC8RpFa5E6kmbjcg41Ar9X6izEKhxd49iLXd+uXO+lL12JEdsedUMXj82OjVhBWOoJdw9a/H5+45V6pZM+Mvo34/k7Bnail83lCqMOdDjaSnYrEz1q4E0VfImXhONRdetJSPU96RkSfUl4a++JOpFU923Inrfe0HD+EkqeYrVlpcafR+wS7ixZ94jO59q+m92A5+u9ULB1okuqHkC6WvCAhAM7qOTg4D4q4p7HrAKn1pYt56sUuL+4AF34ouNOxaS4SIw2kSQBHR8ex+wU8eZn6erkW0+BzEEOtlEruRF9OrbqLUoUY5k5klTnnXuuyxR0CPqVWOZWjBsopPRWJ87BwJxU88e8U3EmxAqJEiS+vfhvxKSGsft/p9eNO9LON9dzJd5VsVedF8aM7d+7cyS8Rhz7mTvop6WebupjrtFDCRheE+05kR9KCi0yD4xQpKzK3jmgBe0/ix6lZj+FBYafzJboNPUp8MWhmWlrpfJ5CyLiTAMVrFGHcybwP9jpxJ4TQC1PB+esXwn47OuvwniG7QluAW95g19DQeaTLqbrhTrTSyTHEuJOWLRMeJRrWyqfVC+l1PqUWiPOuBf3s0lKw+NxccYyJKLzWe5pIYon+67hTxbkfOls0gJbTUmUnoMn60bzRyfTVxbX4g3LfiZ6T8PL09XKtXsfnIIZaKZW9jr6cWnUXpQoxFe7EtZ19XEEXeVsRCvaiHDWMOyGK8S60AB/JWNGR4zjvb+RG3fjfazWkn220VHy19RcNRqRSctqU9KzgdeROoF0U3/4jYceG5fOmjx/Wr3sbTzhy4ODQoM0s0uUUPUp8U1DOtFTS+TyFsF57siCVReoWgVrkTsoze/vPa59G4av1b9l3epLmR33fybY2ynlkxfBlVWHy8XC3TcHuxnTRqDc+t0bTRnxONdPg1aXzeUKow53M5z9f6czei9KKssLyinJhmY+d2XPU0PnIM3s31vrBDZmZCk8m34EVtrZLxPO0fGvq69CWlDc2vAdm0748JFku5LMxh/SnaKw+s1er+05Yet8I/bnOUr2KC0u6NHBwcBkyfjSYqGjz9XHRUoEEgdrdd7pm6EZ53wmfMRsQSV0jCt+4WowImUoLCwoKisqFjqCVUsmd6MtZ4zN7JSdmw8U8rtO83+UHFbXKibkTOY7q8MyeYhQrUeK7FPXYND9Qy/tOFOOdL6cQps3xhAtuS8ULbsJPtR+hn22ur+4ONj2nJckKcfZbsLbZchF5x5uWESFEm5J+tqkL7qSFUn3ZKJdBDrb3yu4cmQMLUQ0GRokXEulR4nOk5E58ckuoLl2WCKF67ckK6eyLukGgJtxJxVZEa1VbEdGnrumWmp475R/vvinYtU5sRShucClPDJoyxsEO1cb5d8kDtqXxSjt7Gr5xUf35xlUDvej3gTIrHdheAk0b8fnVjDvB00rpfJ4QVs+daO06IKTpGzdjArTd9nDBPg9tnvQn8ehTkjWHuI3O7CnuuP9hZkSkrYi/IgbB2a0RO6WG1Srix4N9MOX9DZp7L5baF+0fCypp37B7cjiE/y23t8f9IrvfX3UuLGDChAk/JgiqvdW2ImqVO2HpnQyZQsmrjZgylnZ/28GhQfcVGabcrf3Bknnbuac1brzU7I2uLr84ZgzYRms395Tgoggh9OTARIWdPWzboOvqLPWMVL7V18u1fOOWGT+HUvUNwyZXRPt1FKyAvpwWWxET5XZHqs6HfxkQELDwkNCXFLYiClOmgxdnJ99FEit5go1yinFUh7YiKFDim0u/jfiUEFbPna4GW2krgmK8k9Ih/mTnCJgihmzTMqQif+CV/qefbf4K7w87HR9Hy2bFOLMhA+mtS1pGRM+d6GebuuBOGKUGct+4qP5846o18t1NvcGdHmGVhx4lPr+az7RK6XyefFi/PZmXysI6RqAm3MkwXG6jPFLNRnmw66YdmwskZgpMjzNWnklZln5D3P2g506V2Eb55qW1b6Ocgjuhkr3xZv9OO/aH336cb/Yu9etv0b1+Cmsiuznz4to0cHi1YS55QA49v3hmM7iHSriisshci3b28lK6bjY0jvz1pAR4hB6feBeYZ4JoCQBslNO1Ed8Hy7NjoaGN6ZpvM3rpfJ4QVs+deFvq6jbKY4mdNHT7h23g9Gm0FOPiW/HA7cMTUoS1bdo86RkRfUqy5hCn4U76yIu5Vl3f92VPH6+m3cZFZkgN1eM0lvVyt6FSG+U3NvQCG1mkjfJ/Ts1t7ujo6Dlqj2gXGqG/E77w5jjO46tkwUiHILw8bhxk8sGOPOErjUh2CNhsc/p4l1QDIVLzVoMnxElstpamBbXANsoFvmGxSKtho7x/pLgeab0+UX5gLGhKA6M0a4Slv9Vn4w2he0EtTJkxSxcuXLguRZSOEKq6YvCHy1kdvvsDGMzzq6vg37c6zDsr39YwI6EvXQRMr91R/u6RYAPCucPnYak5j0rKnz0Enzw9OnZsJGPCYPub45z6h96U1igrdvnixYs3SGuEy6nb7i9/m98S3BmN2CkB8lnSVNjD9Jgpdiat/Rzljgp9OXkb5QEye/cnZ7XBNsqFvqTgTgg9TQyEMjr7Ga6QPZ5+HFlsqWvYKB9ErJeLrQmx2r3vRD82QXb13KkI2yjvvEhie7saG+VIf7xL645KD0wE/1ftFdYepelK9n0K6zvcu2uuS3+w8j/62eafk3OagAHNEbsks+LBSXCD0TUwiewjtc+d6GebupjrTIlfNAQ/3kHkATlUmb6wA5ybGxWrPNmKtI44KttHN+WFhe1cXFy85xyXXT68urwTvBGmJQnnSuhR4ouhP9PSS+fztISUPTl7VXfoyU5jRdNGsozYv3aFgNXcKdh107Z+xu3/vfbgfkVVWXlBOu8bt186qeJY/K56RcdF3Xmcb3peaSrOvn020OyhtU3KLVGno+dOqHiP6Bv37yc8e+kXHe71qv6daLgTqnr6+9AtpPWLYNewiLXnEuTcCZmOp4BfYLftMZty8x9VVpWWPjlz2dgdLh2tCcwRqy52hFrkTqYrk8BprKFP6tWMkkoTAt+4+Y+zlxvBD5W78QKhuVC3kVBQTHLCtq+4W1gkusd9Lk5lVkgXMtXjTqgyJTkE+8bdnJufZ8HT4ht3XBapc774n5mgum7Z/t+s+3fLTOWVRZk300ZGwXWvd1JvE9BT5knPiOhTEhU3R2m4k4VeVoO8kKvp8FR3fNOdcx4ZI+y0Cb+b72lwnFPv3kP6zjNeul9YXvb3nfMxFt+4vTcK6/+g6V9a2gm4kPfABXEZD4rKsAdMH5ji2393RrD3IuaNsPFi137LTj0oFN3jVoo9hE/7MttgJk9+hj8lCjr/O0Ko/My3YI7O4hv3aVnFs4dXj64ebv6uscQ3bknSNFBn3m47ZmPytYfPykvzb5zahn3juo3eR7Az6/UJhI+jOL2/5OR9jRpZ/DA6d/ki4njOo2JTZXFeVkrYxI5gEqrpzBNEr6vKCukJ37YISuW1jMqLC+DEyVudfzCTKaL65qi+dP4J3XZHqCp78weNJVYQuIZ+q0JmyLkTsvicdfOdEnniOq7RtdTwyV3AHWqLr9OIGvHS9du96tIy2KvgmvSbtz/97tOy8qIHV381DGsNim/bb86IedJzJyvKWX7mO/DkxGHfuOa+lJm0dmRbkN5MzzcuyjeOb+bo6NiwD2kzAspJOY5Kkmc2x75xQ49lm/vnzdPbsW9cz7H7if7Jw4nD2uVO9GMTpFfPndCjXZ/wvnHP5D4Gn69m37hdu4L35W5rlOdNKMY7WfmXtyMGgID2i9KVcweZEG6yOTo6Nv46RbZYSCaiidPPNlUXF7eHecmz3w8H8Kx4JXH5IDiw59D6W+msWPvcCVHPNnUy15WmzISKvtVq1Lqka3nmmfbk1vHvwKTmMTFe7eamLiMSGkc3ZbHxM/CL5ew3+8Dlv4pNL8E3bn7m4UUD3YG5Dd4hrsjToyRI151prZAuZAqHCil7sikxwGyhx2+tzCgjmRmL2xECVnOnFf8Jjd96dW8LiRm94Ma7T0j8KIIn99wle1YR1t4w6whuvPNoGnkIxwruhExPFOwl/OetFxMay7jT3cRmkuKRhAdbTeCdAlkjHSFU+vTPFYe3d40weIWv9zMmhN8r/if3oIds3wm0vhvzow2Kuq/slpRNLlWJ3aAWuRN6ce3CjqYq1Q923Rxp+ItcFKNuI7GgRfsOrlbUy5ggvt6skS5kW/2+E/SlWwt2K/E0+CZlE1TQnJ3pwYbYNYoSBnvvST0rU/Wp8qRnRPQpEaLvnwJESBd5Pqkp4QtXC3dyGrZb4s0TJ7HoplO37B3VFNQO4cO5+69IJ6ko9Pj01f29OEky2Il6f9k5le1TyP/BntHK9AHxMvAh5V+7R3rAlsPATZmi4szXAocl51b2bQQ6ifTj3HlOsmwgFZ6Y3wNWRKUfpw5TEh8Ki5FQus19IYUVZ/YQerDrE3g3Sz8T4sgaFZ760R/8+Mo+Lt3mpRKK8fOcde/DzWbvgIQCop6lp+e2AXWky5ILKjhQSMd56ba7OVlpzi/LJvXr2NTdzatVtw9nhp3O+ydlOiipshOYhacXvuehaHfOvcf840SNiFpQtHvpxZBBTZR5evRa9jupdFnBnRCiL2fJecOAxkrpbt3mHpP0JamNcr6GD2NGwdFGt8HhN3kd3apxVJj2vX8jhXTXztMOS/rnqdle8rEmDE+geZxgBtMqlCy10G2j3NA+pDgyznVe/icPBoQmJQ/3GLwlfAZ4EVbjTlTjnRdQdfvnkUBW3QZvxZ7H+R8UYYnxUzOqw6N1ff4onpV/QT/blKYb+ijnBLdeS/6QzYp1wJ0Qoptt6mqu+/vYnC5w0Fj64dpPPfyInGkFcHUZkRUpTZmhfd2kgi3/OfstO0+qldQoCdL153lrpPPZ0vdkvDHLecxK1VpL5PNkoX0gUBPuZEx4XpF17di4vaEtww3NoiI/S7uUQR6hF2pmenI0/dDo3RtbhBuaRob1jo1dlJF7n7wuhBCymr1cCU6M6hxhaByxsXfckZ15ZUjp34leN7VSulAzIfLyVjz48N195qbwFY5UPoo/Gz9814bmm1eaidaBFZkPVTYBcOLa5E7wXrt581TQga0dIwxgiTvU0Dxqy8dHThx4TKp7fHFp2ohPC6Ep33hyb9+f1nqK9IzkTlZKxznrcifI9fHhcwkjd29sAXhu8DfGGbLy1PF8Xph28ddx+8JahRs8Nq/ttHvPnPPZt6Sc0VIh/TzpGRF9yppxJxrkcbVM16In+TX39O4yZvNFGRMyJ7BoXQHxlc8yjQvG9u7QrJGbV5ueo+fvvEyq9BaMECrLTdoQNNy/bRP3hm5N2voNC1p3OFctX/6B4qz93496r2NTV1ELVOVO6J/cbf/nBRphmzFbLxWovngRqrxzPPyb0b3be7s5cS5erXt8NG1VQrZMQ8GSS7IPrflqaI+Wni6cs7tPl0GTl8VcKZTlWhPuhFBx5r75I/zbeWGTTua3tZQ7Acm8cXjdjI/fbeXZ0NnNu133/p99v/3UPfJt/uJ62ADQORp9EiMn/EVHpvrAyqnv0ssqQ5RGOiCg1+58+8jCl0lTwees/0b5DFZ689cNQSN6tvNu5Obp09Fv0Pgffzp9n6yRLCOadq+8ezx87pi+nZp7uDZ0b9q+5ydfrz96S9aZrGUF9OWsvHtiy7dj+3by8TRL9x8+c82hHHlfUudO6OW9n4ebqf7Qny1G5a0dRyU5iSEzhvm39XZv6ObV2ndIYHDsn/L+WbfcCSGdNrKCO0GXz/5l6YQ+Hbzd3b3b+Y2YF32xAGn6d4K+QjXeESrJ3jOlM3RJ935h2TJtQdblELq8HAzvSzwmK9JY8QX9bFN26+i6GR/1aOnhwjl7tOw+dPraRHlHRvS3mKxJCdXRnW1quE5EN9c9u/rLysAhvj6NYKZt1nlgwJI9GVrzd22e2cM1T1z11Uc9Wnm6wNHnBs6NfLoOnrzceFU+jGlRIjuH/kxbeoNeunU92ZQYCI4MuKG1sAhA1onF6wyBGnGnOL0Zrc6Ka3cZ56ZvgytAcZfV9Xi7Ky8r0BuPgEXnmyC3wWALYArOLOjlAfTJudXgoBBjBnns1xbleQNl5oa+B+/sEXtVifMbCAhtle1pHNGW2dbpqh/vxTmJYfOGvQPXnDg337kp+bKVD2XpS4yfmxMHHlFdHFM+wL5hCNQDAtb35OwQf+jJ9WRVsh4geP1F1IQ7KW4Hvf4wqdTwRVXp9dzUjyJW/Cd05YeXGHVSgYh9ZY8IaK3r26ispdeN3w7wcYZNKvegYzYqxBsp9kX5k5xjy4Z4Ozo6ugyKuP9GYvAKlbazcfQKNanXR6sZ7xcWg+UOzqnpezN3qW4kKAp6eXln0DgHRUgMsiiSsS8YAvWKgNU9+XliIJy0d/vyEFsEqNeWegVhjDtZA97di1Eqd2n2nc5gG3HWwMjS2hIBe9T5Sm+nRa/8etz6s7YE5k2QfTe8j+LWDefRN+RyNYfx3gRcalBHexxHNaiGTR5RH++Z26dMWxqVfP2Z7n6TpdAWA/dtfjxnk1owoQwBdQSs7sngRMHR0XHgFm2fHeqS2Lc2Q4BxJ2ugJ7hTsFvY6nbR0dN/z7rBVgqswZCltTECTOezcQPYUjzBnTgnV69Wvh9ONRy6LrtxZMsC/ntks3Fk87bCbqacJx5gHdjmbcEK8AoIPD86BdxH+HzPFg9fAcV6ftQq7lTPZWPiGAIMAYYAQ4AhwBBgCDAEGAIMAYaAvSDAuJO9tAQrB0OAIcAQYAgwBBgCDAGGAEOAIWDPCDDuZM+tw8rGEGAIMAQYAgwBhgBDgCHAEGAI2AsCjDvZS0uwcjAEGAIMAYYAQ4AhwBBgCDAEGAL2jADjTvbcOqxsDAGGAEOAIcAQYAgwBBgCDAGGgL0gwLiTvbQEKwdDgCHAEGAIMAQYAgwBhgBDgCFgzwgw7mTPrcPKxhBgCDAEGAIMAYYAQ4AhwBBgCNgLAow72UtLsHIwBBgCDAGGAEOAIcAQYAgwBBgC9ozA/wP4AMlLqShBhQAAAABJRU5ErkJggg==;fontFamily=Helvetica;fontSize=12;fontColor=default;" vertex="1" parent="1">
          <mxGeometry x="420" y="310" width="547.4" height="160" as="geometry" />
        </mxCell>
        <mxCell id="H8FFyv-SCZrLx-SPlViR-4" value="&lt;div style=&quot;background-color:#ffffff;color:#080808&quot;&gt;&lt;pre style=&quot;font-family:&#39;JetBrains Mono&#39;,monospace;font-size:12.0pt;&quot;&gt;&lt;span style=&quot;color:#00627a;&quot;&gt;notifyCheckpointComplete()&lt;/span&gt;&lt;/pre&gt;&lt;/div&gt;" style="rounded=1;whiteSpace=wrap;html=1;" vertex="1" parent="1">
          <mxGeometry x="340" y="600" width="250" height="50" as="geometry" />
        </mxCell>
      </root>
    </mxGraphModel>
  </diagram>
</mxfile>
